<svg width="206" height="239" viewBox="0 0 206 239" fill="none" xmlns="http://www.w3.org/2000/svg">
<g filter="url(#filter0_d_67_2206)">
<path d="M94.12 180.899L80.3538 190.671L67.0142 149.411L35.4102 156.857C35.4102 156.934 35.4102 157.051 35.4102 157.128V157.012H35.4489C16.7192 162.829 4 180.162 4 199.823V230.302H35.4102H46.268V215.257V203.933H83.4949V215.257V230.302H91.4055L97.1447 187.879L94.12 180.899ZM83.4949 200.831H46.268V196.566H83.4949V200.831Z" fill="#183242"/>
</g>
<g filter="url(#filter1_d_67_2206)">
<path d="M94.12 180.899L80.3538 190.671L67.0142 149.411L35.4102 156.857C35.4102 156.934 35.4102 157.051 35.4102 157.128V157.012H35.4489C16.7192 162.829 4 180.162 4 199.823V230.302H35.4102H46.268V215.257V203.933H83.4949V215.257V230.302H91.4055L97.1447 187.879L94.12 180.899ZM83.4949 200.831H46.268V196.566H83.4949V200.831Z" fill="#183242"/>
</g>
<g filter="url(#filter2_d_67_2206)">
<path d="M127.702 138.903V125.02C127.275 125.292 126.849 125.641 126.383 125.912C117.891 131.108 108.623 133.745 102.884 133.745C102.186 133.745 101.449 133.629 100.674 133.551C95.0895 133.047 87.2951 130.604 80.0436 126.261C79.3844 125.873 78.7251 125.408 78.0659 125.02V138.903L99.8591 170.313L102.884 174.695L127.702 138.903Z" fill="#E3AC88"/>
</g>
<g filter="url(#filter3_d_67_2206)">
<path d="M127.702 138.903V125.02C127.275 125.292 126.849 125.641 126.383 125.912C117.891 131.108 108.623 133.745 102.884 133.745C102.186 133.745 101.449 133.629 100.674 133.551C95.0895 133.047 87.2951 130.604 80.0436 126.261C79.3844 125.873 78.7251 125.408 78.0659 125.02V138.903L99.8591 170.313L102.884 174.695L127.702 138.903Z" fill="#E3AC88"/>
</g>
<g filter="url(#filter4_d_67_2206)">
<path d="M111.648 180.899L102.884 174.695L94.12 180.899L97.1447 187.879L91.4055 230.302H102.884H114.362L108.623 187.879L111.648 180.899Z" fill="#121F24"/>
</g>
<g filter="url(#filter5_d_67_2206)">
<path d="M111.648 180.899L102.884 174.695L94.12 180.899L97.1447 187.879L91.4055 230.302H102.884H114.362L108.623 187.879L111.648 180.899Z" fill="#121F24"/>
</g>
<g filter="url(#filter6_d_67_2206)">
<path d="M94.12 180.899L102.884 174.695V174.656L99.8591 170.313L77.9109 138.903L66.8203 149.412L80.2375 190.671L94.12 180.899Z" fill="#1F3A4B"/>
</g>
<g filter="url(#filter7_d_67_2206)">
<path d="M94.12 180.899L102.884 174.695V174.656L99.8591 170.313L77.9109 138.903L66.8203 149.412L80.2375 190.671L94.12 180.899Z" fill="#1F3A4B"/>
</g>
<g filter="url(#filter8_d_67_2206)">
<path d="M125.453 190.671L138.753 149.412L127.741 138.903L102.884 174.695L111.648 180.899L125.453 190.671Z" fill="#1F3A4B"/>
</g>
<g filter="url(#filter9_d_67_2206)">
<path d="M125.453 190.671L138.753 149.412L127.741 138.903L102.884 174.695L111.648 180.899L125.453 190.671Z" fill="#1F3A4B"/>
</g>
<g filter="url(#filter10_d_67_2206)">
<path d="M60.2282 75.7722C59.0648 77.2457 58.9485 79.4173 59.7629 81.5889C59.918 82.0154 59.8404 82.4032 59.569 82.7134C59.3363 82.9849 58.9872 83.1788 58.6382 83.1788C58.4056 83.1788 58.1342 83.14 57.9015 82.9849C57.6301 82.791 57.3586 82.5971 57.1259 82.4032C56.8545 82.2093 56.583 81.9766 56.3504 81.744C53.9849 79.5336 52.6665 76.7416 52.5889 74.3374C52.5502 72.7863 52.9767 71.3903 53.9462 70.382C54.9544 69.335 56.234 68.7921 57.8627 68.7921C58.5995 68.7921 59.3751 68.8697 60.2282 69.0636V61.7733C58.6771 61.5794 57.3586 61.657 56.0014 62.0448C49.1377 63.9449 45.5313 72.3985 47.8968 80.9296C49.7581 87.677 54.7993 92.4467 60.2282 93.2222C60.2282 88.724 60.2282 79.2234 60.2282 79.2234V75.7722Z" fill="#E3AC88"/>
</g>
<g filter="url(#filter11_d_67_2206)">
<path d="M60.2282 75.7722C59.0648 77.2457 58.9485 79.4173 59.7629 81.5889C59.918 82.0154 59.8404 82.4032 59.569 82.7134C59.3363 82.9849 58.9872 83.1788 58.6382 83.1788C58.4056 83.1788 58.1342 83.14 57.9015 82.9849C57.6301 82.791 57.3586 82.5971 57.1259 82.4032C56.8545 82.2093 56.583 81.9766 56.3504 81.744C53.9849 79.5336 52.6665 76.7416 52.5889 74.3374C52.5502 72.7863 52.9767 71.3903 53.9462 70.382C54.9544 69.335 56.234 68.7921 57.8627 68.7921C58.5995 68.7921 59.3751 68.8697 60.2282 69.0636V61.7733C58.6771 61.5794 57.3586 61.657 56.0014 62.0448C49.1377 63.9449 45.5313 72.3985 47.8968 80.9296C49.7581 87.677 54.7993 92.4467 60.2282 93.2222C60.2282 88.724 60.2282 79.2234 60.2282 79.2234V75.7722Z" fill="#E3AC88"/>
</g>
<g filter="url(#filter12_d_67_2206)">
<path d="M147.905 68.7533C149.495 68.7921 150.813 69.2962 151.822 70.3432C152.791 71.3902 153.218 72.7863 153.179 74.2986C153.101 76.7416 151.783 79.4948 149.417 81.744C149.185 81.9766 148.913 82.2093 148.642 82.4032C148.37 82.5971 148.138 82.791 147.866 82.9849C147.634 83.14 147.362 83.2175 147.129 83.1788C146.78 83.1788 146.431 82.9849 146.199 82.6746C145.966 82.3644 145.85 81.9766 146.005 81.5501C146.858 79.3785 146.703 77.2069 145.54 75.7334V79.1071C145.54 79.1071 145.54 88.6077 145.54 93.1059C150.968 92.3304 156.048 87.5607 157.91 80.8133C160.275 72.2821 156.591 63.8285 149.766 61.9284C148.37 61.5406 147.091 61.4631 145.54 61.657V68.9472C146.393 68.8309 147.168 68.7533 147.905 68.7533Z" fill="#E3AC88"/>
</g>
<g filter="url(#filter13_d_67_2206)">
<path d="M147.905 68.7533C149.495 68.7921 150.813 69.2962 151.822 70.3432C152.791 71.3902 153.218 72.7863 153.179 74.2986C153.101 76.7416 151.783 79.4948 149.417 81.744C149.185 81.9766 148.913 82.2093 148.642 82.4032C148.37 82.5971 148.138 82.791 147.866 82.9849C147.634 83.14 147.362 83.2175 147.129 83.1788C146.78 83.1788 146.431 82.9849 146.199 82.6746C145.966 82.3644 145.85 81.9766 146.005 81.5501C146.858 79.3785 146.703 77.2069 145.54 75.7334V79.1071C145.54 79.1071 145.54 88.6077 145.54 93.1059C150.968 92.3304 156.048 87.5607 157.91 80.8133C160.275 72.2821 156.591 63.8285 149.766 61.9284C148.37 61.5406 147.091 61.4631 145.54 61.657V68.9472C146.393 68.8309 147.168 68.7533 147.905 68.7533Z" fill="#E3AC88"/>
</g>
<g filter="url(#filter14_d_67_2206)">
<path d="M53.9461 70.3433C52.9766 71.3903 52.5501 72.7863 52.5888 74.2986C52.6664 76.7417 53.9848 79.4949 56.3503 81.7052C56.583 81.9379 56.8544 82.1706 57.1258 82.3645C57.3973 82.5583 57.63 82.7522 57.9014 82.9461C58.1341 83.1012 58.4055 83.1788 58.6382 83.14C58.9872 83.1012 59.3362 82.9461 59.5689 82.6747C59.8015 82.3644 59.9179 81.9767 59.7628 81.5501C58.9097 79.3785 59.0647 77.207 60.2281 75.7334V68.9861C59.375 68.7922 58.5994 68.7146 57.8626 68.7146C56.2727 68.7534 54.9543 69.2963 53.9461 70.3433Z" fill="#CE9D7E"/>
</g>
<g filter="url(#filter15_d_67_2206)">
<path d="M53.9461 70.3433C52.9766 71.3903 52.5501 72.7863 52.5888 74.2986C52.6664 76.7417 53.9848 79.4949 56.3503 81.7052C56.583 81.9379 56.8544 82.1706 57.1258 82.3645C57.3973 82.5583 57.63 82.7522 57.9014 82.9461C58.1341 83.1012 58.4055 83.1788 58.6382 83.14C58.9872 83.1012 59.3362 82.9461 59.5689 82.6747C59.8015 82.3644 59.9179 81.9767 59.7628 81.5501C58.9097 79.3785 59.0647 77.207 60.2281 75.7334V68.9861C59.375 68.7922 58.5994 68.7146 57.8626 68.7146C56.2727 68.7534 54.9543 69.2963 53.9461 70.3433Z" fill="#CE9D7E"/>
</g>
<g filter="url(#filter16_d_67_2206)">
<path d="M146.005 81.6277C145.85 82.0542 145.927 82.442 146.16 82.7522C146.393 83.0237 146.742 83.2176 147.091 83.2563C147.323 83.2563 147.595 83.2176 147.827 83.0624C148.099 82.8686 148.37 82.6747 148.642 82.4808C148.913 82.2869 149.185 82.0542 149.417 81.8216C151.783 79.6112 153.101 76.8192 153.179 74.3762C153.218 72.8638 152.791 71.4291 151.822 70.4208C150.813 69.3738 149.534 68.8309 147.905 68.8309C147.168 68.8309 146.393 68.9085 145.54 69.1024V75.8497C146.703 77.2845 146.858 79.4561 146.005 81.6277Z" fill="#CE9D7E"/>
</g>
<g filter="url(#filter17_d_67_2206)">
<path d="M146.005 81.6277C145.85 82.0542 145.927 82.442 146.16 82.7522C146.393 83.0237 146.742 83.2176 147.091 83.2563C147.323 83.2563 147.595 83.2176 147.827 83.0624C148.099 82.8686 148.37 82.6747 148.642 82.4808C148.913 82.2869 149.185 82.0542 149.417 81.8216C151.783 79.6112 153.101 76.8192 153.179 74.3762C153.218 72.8638 152.791 71.4291 151.822 70.4208C150.813 69.3738 149.534 68.8309 147.905 68.8309C147.168 68.8309 146.393 68.9085 145.54 69.1024V75.8497C146.703 77.2845 146.858 79.4561 146.005 81.6277Z" fill="#CE9D7E"/>
</g>
<g filter="url(#filter18_d_67_2206)">
<path d="M102.884 133.745C108.623 133.745 117.93 131.108 126.383 125.912C126.81 125.641 127.236 125.33 127.663 125.059C137.357 118.738 145.501 108.772 145.501 95.0448C145.501 94.657 145.501 93.9978 145.501 93.1834C145.501 88.6852 145.501 79.1846 145.501 79.1846V75.8109V69.0635V61.7732V60.765C145.152 60.9201 144.803 61.114 144.454 61.2691C143.484 61.7345 142.476 62.1998 141.429 62.6264C140.615 62.9754 139.8 63.3244 138.986 63.6346C139.141 64.255 139.296 64.8755 139.413 65.4959H139.374C139.335 65.4572 139.257 65.4572 139.219 65.4572C138.443 65.302 137.241 65.1082 135.574 64.9143C125.259 68.5982 114.284 70.5758 102.845 70.5758C91.4442 70.5758 80.4313 68.5982 70.1163 64.9143C68.4489 65.1082 67.3243 65.302 66.5488 65.4572C66.3161 65.4959 66.0058 65.651 66.0058 65.8062H65.9283L65.8895 65.7674C65.9671 64.953 66.0446 64.1775 66.1222 63.4019C66.1609 63.4019 66.161 63.4019 66.161 63.4407C66.1222 63.4407 66.1222 63.4407 66.0834 63.4019C64.067 62.5876 62.0893 61.6957 60.1504 60.765V61.7732V69.0635V75.8109V79.1846C60.1504 79.1846 60.1504 88.6852 60.1504 93.1834C60.1504 93.9978 60.1504 94.657 60.1504 95.0448C60.1504 108.772 68.3325 118.699 78.027 125.02C78.6862 125.447 79.3067 125.834 79.9659 126.222C87.2561 130.565 95.0118 133.008 100.596 133.551C101.449 133.629 102.186 133.745 102.884 133.745ZM83.96 113.115C90.2421 113.115 97.1445 109.703 100.635 107.725C101.333 107.337 102.108 107.105 102.884 107.105C103.659 107.105 104.435 107.299 105.133 107.686C108.584 109.664 115.487 113.115 121.807 113.115V113.193C121.807 113.193 117.387 118.544 109.437 120.677C108.506 120.948 107.498 120.561 106.917 119.785L106.529 119.281C106.296 118.971 105.947 118.738 105.559 118.661C105.443 118.622 105.288 118.622 105.172 118.622H100.635C100.518 118.622 100.363 118.622 100.247 118.661C99.859 118.738 99.51 118.971 99.2773 119.281L98.8895 119.785C98.3079 120.561 97.2997 120.948 96.369 120.716C88.4195 118.583 83.9988 113.232 83.9988 113.232C83.9601 113.193 83.96 113.115 83.96 113.115ZM78.5699 101.404C77.9495 102.878 76.7861 104.041 75.3513 104.623C74.6533 104.933 73.8778 105.088 73.0635 105.088C68.953 105.088 65.6568 101.753 65.6568 97.6429V73.9883C65.6568 71.6616 65.6956 69.5676 65.8119 67.6675L66.161 69.8778C66.1998 70.1881 66.4324 70.4207 66.7426 70.4983C67.0529 70.5758 67.2855 70.8085 67.3243 71.1187C67.557 72.6699 68.4877 77.5171 70.8143 81.6664C72.4818 84.6135 77.678 86.1258 83.262 86.1258C88.9624 86.1258 96.4078 84.4196 99.5876 74.6088C100.053 73.174 101.41 72.1657 102.923 72.1657C104.435 72.1657 105.792 73.174 106.257 74.6088C109.398 84.4584 116.844 86.1258 122.583 86.1258C128.167 86.1258 133.402 84.6135 135.031 81.6664C137.357 77.5171 138.288 72.6699 138.521 71.1187C138.559 70.8085 138.792 70.5758 139.102 70.4983C139.413 70.4207 139.606 70.1881 139.684 69.8778L139.917 68.4431C140.149 70.5371 140.188 72.3209 140.188 73.2515V97.6817C140.188 101.792 136.892 105.127 132.782 105.127C132.006 105.127 131.308 104.972 130.61 104.739C129.136 104.158 127.895 102.994 127.275 101.482C126.228 98.9613 123.824 97.3714 121.109 97.3714H84.8131C82.0211 97.2939 79.6169 98.9225 78.5699 101.404Z" fill="#121F24"/>
</g>
<g filter="url(#filter19_d_67_2206)">
<path d="M102.884 133.745C108.623 133.745 117.93 131.108 126.383 125.912C126.81 125.641 127.236 125.33 127.663 125.059C137.357 118.738 145.501 108.772 145.501 95.0448C145.501 94.657 145.501 93.9978 145.501 93.1834C145.501 88.6852 145.501 79.1846 145.501 79.1846V75.8109V69.0635V61.7732V60.765C145.152 60.9201 144.803 61.114 144.454 61.2691C143.484 61.7345 142.476 62.1998 141.429 62.6264C140.615 62.9754 139.8 63.3244 138.986 63.6346C139.141 64.255 139.296 64.8755 139.413 65.4959H139.374C139.335 65.4572 139.257 65.4572 139.219 65.4572C138.443 65.302 137.241 65.1082 135.574 64.9143C125.259 68.5982 114.284 70.5758 102.845 70.5758C91.4442 70.5758 80.4313 68.5982 70.1163 64.9143C68.4489 65.1082 67.3243 65.302 66.5488 65.4572C66.3161 65.4959 66.0058 65.651 66.0058 65.8062H65.9283L65.8895 65.7674C65.9671 64.953 66.0446 64.1775 66.1222 63.4019C66.1609 63.4019 66.161 63.4019 66.161 63.4407C66.1222 63.4407 66.1222 63.4407 66.0834 63.4019C64.067 62.5876 62.0893 61.6957 60.1504 60.765V61.7732V69.0635V75.8109V79.1846C60.1504 79.1846 60.1504 88.6852 60.1504 93.1834C60.1504 93.9978 60.1504 94.657 60.1504 95.0448C60.1504 108.772 68.3325 118.699 78.027 125.02C78.6862 125.447 79.3067 125.834 79.9659 126.222C87.2561 130.565 95.0118 133.008 100.596 133.551C101.449 133.629 102.186 133.745 102.884 133.745ZM83.96 113.115C90.2421 113.115 97.1445 109.703 100.635 107.725C101.333 107.337 102.108 107.105 102.884 107.105C103.659 107.105 104.435 107.299 105.133 107.686C108.584 109.664 115.487 113.115 121.807 113.115V113.193C121.807 113.193 117.387 118.544 109.437 120.677C108.506 120.948 107.498 120.561 106.917 119.785L106.529 119.281C106.296 118.971 105.947 118.738 105.559 118.661C105.443 118.622 105.288 118.622 105.172 118.622H100.635C100.518 118.622 100.363 118.622 100.247 118.661C99.859 118.738 99.51 118.971 99.2773 119.281L98.8895 119.785C98.3079 120.561 97.2997 120.948 96.369 120.716C88.4195 118.583 83.9988 113.232 83.9988 113.232C83.9601 113.193 83.96 113.115 83.96 113.115ZM78.5699 101.404C77.9495 102.878 76.7861 104.041 75.3513 104.623C74.6533 104.933 73.8778 105.088 73.0635 105.088C68.953 105.088 65.6568 101.753 65.6568 97.6429V73.9883C65.6568 71.6616 65.6956 69.5676 65.8119 67.6675L66.161 69.8778C66.1998 70.1881 66.4324 70.4207 66.7426 70.4983C67.0529 70.5758 67.2855 70.8085 67.3243 71.1187C67.557 72.6699 68.4877 77.5171 70.8143 81.6664C72.4818 84.6135 77.678 86.1258 83.262 86.1258C88.9624 86.1258 96.4078 84.4196 99.5876 74.6088C100.053 73.174 101.41 72.1657 102.923 72.1657C104.435 72.1657 105.792 73.174 106.257 74.6088C109.398 84.4584 116.844 86.1258 122.583 86.1258C128.167 86.1258 133.402 84.6135 135.031 81.6664C137.357 77.5171 138.288 72.6699 138.521 71.1187C138.559 70.8085 138.792 70.5758 139.102 70.4983C139.413 70.4207 139.606 70.1881 139.684 69.8778L139.917 68.4431C140.149 70.5371 140.188 72.3209 140.188 73.2515V97.6817C140.188 101.792 136.892 105.127 132.782 105.127C132.006 105.127 131.308 104.972 130.61 104.739C129.136 104.158 127.895 102.994 127.275 101.482C126.228 98.9613 123.824 97.3714 121.109 97.3714H84.8131C82.0211 97.2939 79.6169 98.9225 78.5699 101.404Z" fill="#121F24"/>
</g>
<g filter="url(#filter20_d_67_2206)">
<path d="M66.1999 63.2856C66.1611 63.2856 66.1611 63.3244 66.1224 63.2856C66.0448 64.0224 66.006 64.8368 65.9285 65.6511C65.9285 65.6511 66.006 65.6899 66.006 65.7287C66.006 65.5736 66.3163 65.3409 66.549 65.3021C67.3245 65.147 68.4491 65.0694 70.1165 64.6817C68.8368 64.3327 67.5183 63.8285 66.1999 63.2856Z" fill="#FABD96"/>
</g>
<g filter="url(#filter21_d_67_2206)">
<path d="M66.1999 63.2856C66.1611 63.2856 66.1611 63.3244 66.1224 63.2856C66.0448 64.0224 66.006 64.8368 65.9285 65.6511C65.9285 65.6511 66.006 65.6899 66.006 65.7287C66.006 65.5736 66.3163 65.3409 66.549 65.3021C67.3245 65.147 68.4491 65.0694 70.1165 64.6817C68.8368 64.3327 67.5183 63.8285 66.1999 63.2856Z" fill="#FABD96"/>
</g>
<g filter="url(#filter22_d_67_2206)">
<path d="M135.612 64.8756C137.28 65.0695 138.482 65.2634 139.257 65.4185C139.296 65.4185 139.335 65.4573 139.413 65.4573H139.451C139.335 64.8368 139.18 64.2164 139.025 63.5959C137.9 64.0613 136.737 64.4878 135.612 64.8756Z" fill="#FABD96"/>
</g>
<g filter="url(#filter23_d_67_2206)">
<path d="M135.612 64.8756C137.28 65.0695 138.482 65.2634 139.257 65.4185C139.296 65.4185 139.335 65.4573 139.413 65.4573H139.451C139.335 64.8368 139.18 64.2164 139.025 63.5959C137.9 64.0613 136.737 64.4878 135.612 64.8756Z" fill="#FABD96"/>
</g>
<g filter="url(#filter24_d_67_2206)">
<path d="M121.032 97.2939C123.746 97.2939 126.189 98.9226 127.236 101.404C127.857 102.956 129.098 104.119 130.571 104.662C131.23 104.933 131.967 105.05 132.743 105.05C136.853 105.05 140.15 101.715 140.15 97.6042V73.2516C140.15 72.3209 140.111 70.5371 139.878 68.4431L139.645 69.8779C139.607 70.1881 139.374 70.4208 139.064 70.4984C138.753 70.5759 138.521 70.8086 138.482 71.1188C138.249 72.6699 137.319 77.4784 134.992 81.6276C133.325 84.5748 128.128 86.0483 122.544 86.0483C116.844 86.0483 109.399 84.4197 106.219 74.57C105.753 73.1353 104.435 72.1658 102.884 72.1658C101.333 72.1658 100.014 73.0965 99.5489 74.57C96.4079 84.4197 88.9625 86.0483 83.2621 86.0483C77.6781 86.0483 72.4431 84.5748 70.7757 81.6276C68.449 77.4784 67.5183 72.6699 67.2856 71.1188C67.2469 70.8086 67.0142 70.5759 66.704 70.5371C66.3937 70.4596 66.1611 70.2269 66.1223 69.9555L65.7733 67.7451C65.657 69.6452 65.6182 71.7393 65.6182 74.0659V97.7205C65.6182 101.831 68.9143 105.166 73.0248 105.166C73.8391 105.166 74.6147 105.011 75.3127 104.701C76.7474 104.119 77.9108 102.956 78.5312 101.482C79.5783 98.9614 82.0213 97.3715 84.697 97.3715H121.032V97.2939Z" fill="#FABD96"/>
</g>
<g filter="url(#filter25_d_67_2206)">
<path d="M121.032 97.2939C123.746 97.2939 126.189 98.9226 127.236 101.404C127.857 102.956 129.098 104.119 130.571 104.662C131.23 104.933 131.967 105.05 132.743 105.05C136.853 105.05 140.15 101.715 140.15 97.6042V73.2516C140.15 72.3209 140.111 70.5371 139.878 68.4431L139.645 69.8779C139.607 70.1881 139.374 70.4208 139.064 70.4984C138.753 70.5759 138.521 70.8086 138.482 71.1188C138.249 72.6699 137.319 77.4784 134.992 81.6276C133.325 84.5748 128.128 86.0483 122.544 86.0483C116.844 86.0483 109.399 84.4197 106.219 74.57C105.753 73.1353 104.435 72.1658 102.884 72.1658C101.333 72.1658 100.014 73.0965 99.5489 74.57C96.4079 84.4197 88.9625 86.0483 83.2621 86.0483C77.6781 86.0483 72.4431 84.5748 70.7757 81.6276C68.449 77.4784 67.5183 72.6699 67.2856 71.1188C67.2469 70.8086 67.0142 70.5759 66.704 70.5371C66.3937 70.4596 66.1611 70.2269 66.1223 69.9555L65.7733 67.7451C65.657 69.6452 65.6182 71.7393 65.6182 74.0659V97.7205C65.6182 101.831 68.9143 105.166 73.0248 105.166C73.8391 105.166 74.6147 105.011 75.3127 104.701C76.7474 104.119 77.9108 102.956 78.5312 101.482C79.5783 98.9614 82.0213 97.3715 84.697 97.3715H121.032V97.2939Z" fill="#FABD96"/>
</g>
<g filter="url(#filter26_d_67_2206)">
<path d="M96.3692 120.6C97.2998 120.871 98.3081 120.522 98.8897 119.747L99.2775 119.242C99.5102 118.932 99.8592 118.738 100.247 118.622C100.363 118.583 100.518 118.583 100.635 118.583H105.172C105.288 118.583 105.443 118.583 105.56 118.622C105.947 118.7 106.296 118.932 106.529 119.242L106.917 119.747C107.498 120.522 108.507 120.91 109.437 120.677C117.387 118.544 121.808 113.193 121.808 113.193C115.526 113.193 108.623 109.742 105.172 107.764C104.474 107.376 103.698 107.144 102.923 107.144C102.147 107.144 101.372 107.338 100.674 107.725C97.2223 109.703 90.3198 113.077 83.999 113.077C83.999 113.115 88.4197 118.467 96.3692 120.6Z" fill="#FABD96"/>
</g>
<g filter="url(#filter27_d_67_2206)">
<path d="M96.3692 120.6C97.2998 120.871 98.3081 120.522 98.8897 119.747L99.2775 119.242C99.5102 118.932 99.8592 118.738 100.247 118.622C100.363 118.583 100.518 118.583 100.635 118.583H105.172C105.288 118.583 105.443 118.583 105.56 118.622C105.947 118.7 106.296 118.932 106.529 119.242L106.917 119.747C107.498 120.522 108.507 120.91 109.437 120.677C117.387 118.544 121.808 113.193 121.808 113.193C115.526 113.193 108.623 109.742 105.172 107.764C104.474 107.376 103.698 107.144 102.923 107.144C102.147 107.144 101.372 107.338 100.674 107.725C97.2223 109.703 90.3198 113.077 83.999 113.077C83.999 113.115 88.4197 118.467 96.3692 120.6Z" fill="#FABD96"/>
</g>
<g filter="url(#filter28_d_67_2206)">
<path d="M163.184 199.358L160.624 196.566C160.624 196.566 157.987 198.737 155.932 198.737C153.838 198.737 151.783 196.566 151.783 196.566C151.783 196.566 149.689 198.737 147.634 198.737C145.54 198.737 142.941 196.566 142.941 196.566L140.382 199.358C140.382 199.358 143.484 202.227 142.476 207.772C141.662 212.271 138.947 214.636 140.77 219.638C141.856 222.624 145.889 224.873 148.603 225.416C150.93 225.92 151.822 227.2 151.822 227.2C151.822 227.2 152.714 225.92 155.04 225.416C157.755 224.835 161.788 222.586 162.873 219.638C164.696 214.636 161.981 212.232 161.167 207.772C160.081 202.188 163.184 199.358 163.184 199.358ZM151.744 221.461C147.129 221.461 143.407 217.738 143.407 213.124C143.407 208.509 147.129 204.786 151.744 204.786C156.359 204.786 160.081 208.509 160.081 213.124C160.081 217.7 156.32 221.461 151.744 221.461Z" fill="#FBB03B"/>
</g>
<g filter="url(#filter29_d_67_2206)">
<path d="M163.184 199.358L160.624 196.566C160.624 196.566 157.987 198.737 155.932 198.737C153.838 198.737 151.783 196.566 151.783 196.566C151.783 196.566 149.689 198.737 147.634 198.737C145.54 198.737 142.941 196.566 142.941 196.566L140.382 199.358C140.382 199.358 143.484 202.227 142.476 207.772C141.662 212.271 138.947 214.636 140.77 219.638C141.856 222.624 145.889 224.873 148.603 225.416C150.93 225.92 151.822 227.2 151.822 227.2C151.822 227.2 152.714 225.92 155.04 225.416C157.755 224.835 161.788 222.586 162.873 219.638C164.696 214.636 161.981 212.232 161.167 207.772C160.081 202.188 163.184 199.358 163.184 199.358ZM151.744 221.461C147.129 221.461 143.407 217.738 143.407 213.124C143.407 208.509 147.129 204.786 151.744 204.786C156.359 204.786 160.081 208.509 160.081 213.124C160.081 217.7 156.32 221.461 151.744 221.461Z" fill="#FBB03B"/>
</g>
<g filter="url(#filter30_d_67_2206)">
<path d="M151.744 221.461C156.349 221.461 160.081 217.728 160.081 213.124C160.081 208.519 156.349 204.786 151.744 204.786C147.139 204.786 143.407 208.519 143.407 213.124C143.407 217.728 147.139 221.461 151.744 221.461Z" fill="#E4A035"/>
</g>
<g filter="url(#filter31_d_67_2206)">
<path d="M151.744 221.461C156.349 221.461 160.081 217.728 160.081 213.124C160.081 208.519 156.349 204.786 151.744 204.786C147.139 204.786 143.407 208.519 143.407 213.124C143.407 217.728 147.139 221.461 151.744 221.461Z" fill="#E4A035"/>
</g>
<g filter="url(#filter32_d_67_2206)">
<path d="M83.4949 196.566H46.2681V200.831H83.4949V196.566Z" fill="#1F3A4B"/>
</g>
<g filter="url(#filter33_d_67_2206)">
<path d="M83.4949 196.566H46.2681V200.831H83.4949V196.566Z" fill="#1F3A4B"/>
</g>
<g filter="url(#filter34_d_67_2206)">
<path d="M64.8815 220.104L46.2681 215.257V230.302H83.4949V215.257L64.8815 220.104Z" fill="#1F3A4B"/>
</g>
<g filter="url(#filter35_d_67_2206)">
<path d="M64.8815 220.104L46.2681 215.257V230.302H83.4949V215.257L64.8815 220.104Z" fill="#1F3A4B"/>
</g>
<g filter="url(#filter36_d_67_2206)">
<path d="M83.4949 215.257V203.933H46.2681V215.257L64.8815 220.104L83.4949 215.257Z" fill="#264355"/>
</g>
<g filter="url(#filter37_d_67_2206)">
<path d="M83.4949 215.257V203.933H46.2681V215.257L64.8815 220.104L83.4949 215.257Z" fill="#264355"/>
</g>
<g filter="url(#filter38_d_67_2206)">
<path d="M66.1998 63.3632C67.5183 63.9061 68.8368 64.4102 70.1553 64.8756C80.4702 68.5595 91.4443 70.5372 102.884 70.5372C114.285 70.5372 125.297 68.5595 135.612 64.8756C136.737 64.4878 137.9 64.0612 139.025 63.5959C139.839 63.2857 140.654 62.9367 141.468 62.5877C142.476 62.1611 143.484 61.6958 144.493 61.2304C144.842 61.0753 145.191 60.8815 145.54 60.7263C145.578 60.6876 145.617 60.6876 145.695 60.6488C147.091 59.9896 148.448 59.2916 149.805 58.516H56.04C57.3973 59.2916 58.7545 59.9896 60.1505 60.6488C60.1893 60.6876 60.2281 60.6876 60.2669 60.7263C62.2058 61.657 64.1834 62.5489 66.1998 63.3632C66.1998 63.3632 66.1611 63.3632 66.1998 63.3632Z" fill="#1B2E37"/>
</g>
<g filter="url(#filter39_d_67_2206)">
<path d="M66.1998 63.3632C67.5183 63.9061 68.8368 64.4102 70.1553 64.8756C80.4702 68.5595 91.4443 70.5372 102.884 70.5372C114.285 70.5372 125.297 68.5595 135.612 64.8756C136.737 64.4878 137.9 64.0612 139.025 63.5959C139.839 63.2857 140.654 62.9367 141.468 62.5877C142.476 62.1611 143.484 61.6958 144.493 61.2304C144.842 61.0753 145.191 60.8815 145.54 60.7263C145.578 60.6876 145.617 60.6876 145.695 60.6488C147.091 59.9896 148.448 59.2916 149.805 58.516H56.04C57.3973 59.2916 58.7545 59.9896 60.1505 60.6488C60.1893 60.6876 60.2281 60.6876 60.2669 60.7263C62.2058 61.657 64.1834 62.5489 66.1998 63.3632C66.1998 63.3632 66.1611 63.3632 66.1998 63.3632Z" fill="#1B2E37"/>
</g>
<g filter="url(#filter40_d_67_2206)">
<path d="M144.57 31.4102L136.621 42.3456C136.659 42.3456 136.698 42.3456 136.776 42.3844C141.196 43.0824 149.766 43.8967 149.805 44.8662C149.805 44.8662 149.805 44.8662 149.844 44.8662L164.192 31.449L146.625 10.8579L102.884 0.0388184L132.626 10.8191L144.57 31.4102Z" fill="#1B2E37"/>
</g>
<g filter="url(#filter41_d_67_2206)">
<path d="M144.57 31.4102L136.621 42.3456C136.659 42.3456 136.698 42.3456 136.776 42.3844C141.196 43.0824 149.766 43.8967 149.805 44.8662C149.805 44.8662 149.805 44.8662 149.844 44.8662L164.192 31.449L146.625 10.8579L102.884 0.0388184L132.626 10.8191L144.57 31.4102Z" fill="#1B2E37"/>
</g>
<g filter="url(#filter42_d_67_2206)">
<path d="M69.1471 42.2292L61.1976 31.3326L73.1413 10.7803L102.884 0L59.1812 10.8191L41.6147 31.4102L55.9626 44.8273C56.0402 44.8273 56.1177 44.7498 56.1565 44.7498C60.3833 43.7803 64.804 43.0048 69.1471 42.2292Z" fill="#1B2E37"/>
</g>
<g filter="url(#filter43_d_67_2206)">
<path d="M69.1471 42.2292L61.1976 31.3326L73.1413 10.7803L102.884 0L59.1812 10.8191L41.6147 31.4102L55.9626 44.8273C56.0402 44.8273 56.1177 44.7498 56.1565 44.7498C60.3833 43.7803 64.804 43.0048 69.1471 42.2292Z" fill="#1B2E37"/>
</g>
<g filter="url(#filter44_d_67_2206)">
<path d="M61.1975 31.4102L69.147 42.3456C80.3926 40.5618 91.6382 39.6699 102.884 39.6699C114.129 39.6699 125.375 40.5618 136.621 42.3456L144.57 31.4102L132.627 10.8191L102.884 0.0388184L73.1411 10.8191L61.1975 31.4102ZM94.4302 13.1458L96.3304 11.0905C96.3304 11.0905 98.2693 12.6804 99.8204 12.6804C101.372 12.6804 102.923 11.0905 102.923 11.0905C102.923 11.0905 104.474 12.6804 106.025 12.6804C107.576 12.6804 109.515 11.0905 109.515 11.0905L111.415 13.1458C111.415 13.1458 109.127 15.2786 109.864 19.389C110.446 22.7239 112.462 24.4689 111.144 28.1916C110.368 30.402 107.343 32.0694 105.366 32.496C103.659 32.845 102.961 33.8144 102.961 33.8144C102.961 33.8144 102.302 32.8838 100.557 32.496C98.5407 32.0694 95.5548 30.402 94.7793 28.1916C93.4608 24.4689 95.4384 22.7239 96.0589 19.389C96.7181 15.2398 94.4302 13.1458 94.4302 13.1458Z" fill="#1F3A4B"/>
</g>
<g filter="url(#filter45_d_67_2206)">
<path d="M61.1975 31.4102L69.147 42.3456C80.3926 40.5618 91.6382 39.6699 102.884 39.6699C114.129 39.6699 125.375 40.5618 136.621 42.3456L144.57 31.4102L132.627 10.8191L102.884 0.0388184L73.1411 10.8191L61.1975 31.4102ZM94.4302 13.1458L96.3304 11.0905C96.3304 11.0905 98.2693 12.6804 99.8204 12.6804C101.372 12.6804 102.923 11.0905 102.923 11.0905C102.923 11.0905 104.474 12.6804 106.025 12.6804C107.576 12.6804 109.515 11.0905 109.515 11.0905L111.415 13.1458C111.415 13.1458 109.127 15.2786 109.864 19.389C110.446 22.7239 112.462 24.4689 111.144 28.1916C110.368 30.402 107.343 32.0694 105.366 32.496C103.659 32.845 102.961 33.8144 102.961 33.8144C102.961 33.8144 102.302 32.8838 100.557 32.496C98.5407 32.0694 95.5548 30.402 94.7793 28.1916C93.4608 24.4689 95.4384 22.7239 96.0589 19.389C96.7181 15.2398 94.4302 13.1458 94.4302 13.1458Z" fill="#1F3A4B"/>
</g>
<g filter="url(#filter46_d_67_2206)">
<path d="M78.4536 55.8015V44.2844C77.1352 44.4395 75.8167 44.5947 74.537 44.7498C68.3325 45.5641 62.0893 46.6499 55.9624 48.0071V55.8015H78.3373H78.4536Z" fill="#1B2E37"/>
</g>
<g filter="url(#filter47_d_67_2206)">
<path d="M78.4536 55.8015V44.2844C77.1352 44.4395 75.8167 44.5947 74.537 44.7498C68.3325 45.5641 62.0893 46.6499 55.9624 48.0071V55.8015H78.3373H78.4536Z" fill="#1B2E37"/>
</g>
<g filter="url(#filter48_d_67_2206)">
<path d="M127.314 44.2844V55.8015H127.43H149.805V48.0071C143.833 46.6887 137.707 45.6029 131.618 44.7885C130.222 44.5947 128.749 44.4395 127.314 44.2844Z" fill="#1B2E37"/>
</g>
<g filter="url(#filter49_d_67_2206)">
<path d="M127.314 44.2844V55.8015H127.43H149.805V48.0071C143.833 46.6887 137.707 45.6029 131.618 44.7885C130.222 44.5947 128.749 44.4395 127.314 44.2844Z" fill="#1B2E37"/>
</g>
<g filter="url(#filter50_d_67_2206)">
<path d="M102.884 42.8496C102.574 42.8496 102.263 42.8496 101.953 42.8496C94.12 42.8884 86.2868 43.3537 78.4536 44.2456V55.8015H127.314V44.2844C119.17 43.3149 111.027 42.8496 102.884 42.8496Z" fill="#243943"/>
</g>
<g filter="url(#filter51_d_67_2206)">
<path d="M102.884 42.8496C102.574 42.8496 102.263 42.8496 101.953 42.8496C94.12 42.8884 86.2868 43.3537 78.4536 44.2456V55.8015H127.314V44.2844C119.17 43.3149 111.027 42.8496 102.884 42.8496Z" fill="#243943"/>
</g>
<g filter="url(#filter52_d_67_2206)">
<path d="M78.3373 44.2844C86.2092 43.3925 94.0812 42.9272 101.953 42.8884C102.263 42.8884 102.574 42.8884 102.884 42.8884C111.066 42.8884 119.248 43.3537 127.43 44.2844C128.826 44.4395 130.222 44.6334 131.618 44.8273C137.706 45.6416 143.795 46.7274 149.805 48.0459V47.1928V45.6804V44.8273C149.766 43.8579 141.196 43.0435 136.776 42.3455C136.737 42.3455 136.659 42.3455 136.621 42.3067C125.375 40.523 114.129 39.5923 102.884 39.5923C91.6381 39.5923 80.3925 40.6781 69.1469 42.2292C64.8038 43.0047 60.3443 43.7803 56.1563 44.711C56.0787 44.711 56.04 44.7885 55.9624 44.7885V45.6416V47.154V48.0071C62.0893 46.6499 68.3325 45.5641 74.537 44.7498C75.8167 44.5559 77.0964 44.4007 78.3373 44.2844Z" fill="#FBB03B"/>
</g>
<g filter="url(#filter53_d_67_2206)">
<path d="M78.3373 44.2844C86.2092 43.3925 94.0812 42.9272 101.953 42.8884C102.263 42.8884 102.574 42.8884 102.884 42.8884C111.066 42.8884 119.248 43.3537 127.43 44.2844C128.826 44.4395 130.222 44.6334 131.618 44.8273C137.706 45.6416 143.795 46.7274 149.805 48.0459V47.1928V45.6804V44.8273C149.766 43.8579 141.196 43.0435 136.776 42.3455C136.737 42.3455 136.659 42.3455 136.621 42.3067C125.375 40.523 114.129 39.5923 102.884 39.5923C91.6381 39.5923 80.3925 40.6781 69.1469 42.2292C64.8038 43.0047 60.3443 43.7803 56.1563 44.711C56.0787 44.711 56.04 44.7885 55.9624 44.7885V45.6416V47.154V48.0071C62.0893 46.6499 68.3325 45.5641 74.537 44.7498C75.8167 44.5559 77.0964 44.4007 78.3373 44.2844Z" fill="#FBB03B"/>
</g>
<g filter="url(#filter54_d_67_2206)">
<path d="M149.805 58.516V55.8015H127.43H127.314H78.4536H78.3373H55.9624V58.516H56.0012H149.766H149.805Z" fill="#FBB03B"/>
</g>
<g filter="url(#filter55_d_67_2206)">
<path d="M149.805 58.516V55.8015H127.43H127.314H78.4536H78.3373H55.9624V58.516H56.0012H149.766H149.805Z" fill="#FBB03B"/>
</g>
<g filter="url(#filter56_d_67_2206)">
<path d="M94.7015 28.1528C95.477 30.3632 98.5018 32.0306 100.479 32.4572C102.186 32.8062 102.884 33.7757 102.884 33.7757C102.884 33.7757 103.543 32.845 105.288 32.4572C107.304 32.0306 110.29 30.3632 111.066 28.1528C112.384 24.4302 110.407 22.6851 109.786 19.3502C109.049 15.2398 111.337 13.107 111.337 13.107L109.437 11.0518C109.437 11.0518 107.498 12.6417 105.947 12.6417C104.396 12.6417 102.845 11.0518 102.845 11.0518C102.845 11.0518 101.294 12.6417 99.7426 12.6417C98.1915 12.6417 96.2526 11.0518 96.2526 11.0518L94.3525 13.107C94.3525 13.107 96.6404 15.2398 95.9036 19.3502C95.3607 22.6851 93.383 24.4302 94.7015 28.1528ZM102.884 17.1399C106.296 17.1399 109.049 19.8931 109.049 23.3056C109.049 26.7181 106.296 29.4713 102.884 29.4713C99.4712 29.4713 96.718 26.7181 96.718 23.3056C96.718 19.9319 99.4712 17.1399 102.884 17.1399Z" fill="#FBB03B"/>
</g>
<g filter="url(#filter57_d_67_2206)">
<path d="M94.7015 28.1528C95.477 30.3632 98.5018 32.0306 100.479 32.4572C102.186 32.8062 102.884 33.7757 102.884 33.7757C102.884 33.7757 103.543 32.845 105.288 32.4572C107.304 32.0306 110.29 30.3632 111.066 28.1528C112.384 24.4302 110.407 22.6851 109.786 19.3502C109.049 15.2398 111.337 13.107 111.337 13.107L109.437 11.0518C109.437 11.0518 107.498 12.6417 105.947 12.6417C104.396 12.6417 102.845 11.0518 102.845 11.0518C102.845 11.0518 101.294 12.6417 99.7426 12.6417C98.1915 12.6417 96.2526 11.0518 96.2526 11.0518L94.3525 13.107C94.3525 13.107 96.6404 15.2398 95.9036 19.3502C95.3607 22.6851 93.383 24.4302 94.7015 28.1528ZM102.884 17.1399C106.296 17.1399 109.049 19.8931 109.049 23.3056C109.049 26.7181 106.296 29.4713 102.884 29.4713C99.4712 29.4713 96.718 26.7181 96.718 23.3056C96.718 19.9319 99.4712 17.1399 102.884 17.1399Z" fill="#FBB03B"/>
</g>
<g filter="url(#filter58_d_67_2206)">
<path d="M102.884 29.5101C106.289 29.5101 109.05 26.7496 109.05 23.3443C109.05 19.9391 106.289 17.1786 102.884 17.1786C99.4787 17.1786 96.7183 19.9391 96.7183 23.3443C96.7183 26.7496 99.4787 29.5101 102.884 29.5101Z" fill="#E4A035"/>
</g>
<g filter="url(#filter59_d_67_2206)">
<path d="M102.884 29.5101C106.289 29.5101 109.05 26.7496 109.05 23.3443C109.05 19.9391 106.289 17.1786 102.884 17.1786C99.4787 17.1786 96.7183 19.9391 96.7183 23.3443C96.7183 26.7496 99.4787 29.5101 102.884 29.5101Z" fill="#E4A035"/>
</g>
<g filter="url(#filter60_d_67_2206)">
<path d="M201.768 199.823C201.768 180.163 189.049 162.829 170.319 157.012H170.358V157.051V156.896L138.754 149.45L125.414 190.71L111.648 180.938L108.623 187.918L114.362 230.341H170.358H201.768V199.823ZM162.796 219.639C161.71 222.624 157.677 224.874 154.963 225.416C152.636 225.921 151.744 227.2 151.744 227.2C151.744 227.2 150.852 225.921 148.526 225.416C145.811 224.835 141.778 222.586 140.692 219.639C138.87 214.636 141.584 212.232 142.399 207.772C143.407 202.227 140.305 199.358 140.305 199.358L142.864 196.566C142.864 196.566 145.501 198.737 147.556 198.737C149.65 198.737 151.705 196.566 151.705 196.566C151.705 196.566 153.799 198.737 155.855 198.737C157.949 198.737 160.547 196.566 160.547 196.566L163.106 199.358C163.106 199.358 160.004 202.227 161.012 207.772C161.865 212.232 164.58 214.597 162.796 219.639Z" fill="#183242"/>
</g>
<g filter="url(#filter61_d_67_2206)">
<path d="M201.768 199.823C201.768 180.163 189.049 162.829 170.319 157.012H170.358V157.051V156.896L138.754 149.45L125.414 190.71L111.648 180.938L108.623 187.918L114.362 230.341H170.358H201.768V199.823ZM162.796 219.639C161.71 222.624 157.677 224.874 154.963 225.416C152.636 225.921 151.744 227.2 151.744 227.2C151.744 227.2 150.852 225.921 148.526 225.416C145.811 224.835 141.778 222.586 140.692 219.639C138.87 214.636 141.584 212.232 142.399 207.772C143.407 202.227 140.305 199.358 140.305 199.358L142.864 196.566C142.864 196.566 145.501 198.737 147.556 198.737C149.65 198.737 151.705 196.566 151.705 196.566C151.705 196.566 153.799 198.737 155.855 198.737C157.949 198.737 160.547 196.566 160.547 196.566L163.106 199.358C163.106 199.358 160.004 202.227 161.012 207.772C161.865 212.232 164.58 214.597 162.796 219.639Z" fill="#183242"/>
</g>
<defs>
<filter id="filter0_d_67_2206" x="0" y="149.411" width="101.145" height="88.8909" filterUnits="userSpaceOnUse" color-interpolation-filters="sRGB">
<feFlood flood-opacity="0" result="BackgroundImageFix"/>
<feColorMatrix in="SourceAlpha" type="matrix" values="0 0 0 0 0 0 0 0 0 0 0 0 0 0 0 0 0 0 127 0" result="hardAlpha"/>
<feOffset dy="4"/>
<feGaussianBlur stdDeviation="2"/>
<feComposite in2="hardAlpha" operator="out"/>
<feColorMatrix type="matrix" values="0 0 0 0 0 0 0 0 0 0 0 0 0 0 0 0 0 0 0.25 0"/>
<feBlend mode="normal" in2="BackgroundImageFix" result="effect1_dropShadow_67_2206"/>
<feBlend mode="normal" in="SourceGraphic" in2="effect1_dropShadow_67_2206" result="shape"/>
</filter>
<filter id="filter1_d_67_2206" x="0" y="149.411" width="101.145" height="88.8909" filterUnits="userSpaceOnUse" color-interpolation-filters="sRGB">
<feFlood flood-opacity="0" result="BackgroundImageFix"/>
<feColorMatrix in="SourceAlpha" type="matrix" values="0 0 0 0 0 0 0 0 0 0 0 0 0 0 0 0 0 0 127 0" result="hardAlpha"/>
<feOffset dy="4"/>
<feGaussianBlur stdDeviation="2"/>
<feComposite in2="hardAlpha" operator="out"/>
<feColorMatrix type="matrix" values="0 0 0 0 0 0 0 0 0 0 0 0 0 0 0 0 0 0 0.25 0"/>
<feBlend mode="normal" in2="BackgroundImageFix" result="effect1_dropShadow_67_2206"/>
<feBlend mode="normal" in="SourceGraphic" in2="effect1_dropShadow_67_2206" result="shape"/>
</filter>
<filter id="filter2_d_67_2206" x="74.0659" y="125.02" width="57.6357" height="57.6746" filterUnits="userSpaceOnUse" color-interpolation-filters="sRGB">
<feFlood flood-opacity="0" result="BackgroundImageFix"/>
<feColorMatrix in="SourceAlpha" type="matrix" values="0 0 0 0 0 0 0 0 0 0 0 0 0 0 0 0 0 0 127 0" result="hardAlpha"/>
<feOffset dy="4"/>
<feGaussianBlur stdDeviation="2"/>
<feComposite in2="hardAlpha" operator="out"/>
<feColorMatrix type="matrix" values="0 0 0 0 0 0 0 0 0 0 0 0 0 0 0 0 0 0 0.25 0"/>
<feBlend mode="normal" in2="BackgroundImageFix" result="effect1_dropShadow_67_2206"/>
<feBlend mode="normal" in="SourceGraphic" in2="effect1_dropShadow_67_2206" result="shape"/>
</filter>
<filter id="filter3_d_67_2206" x="74.0659" y="125.02" width="57.6357" height="57.6746" filterUnits="userSpaceOnUse" color-interpolation-filters="sRGB">
<feFlood flood-opacity="0" result="BackgroundImageFix"/>
<feColorMatrix in="SourceAlpha" type="matrix" values="0 0 0 0 0 0 0 0 0 0 0 0 0 0 0 0 0 0 127 0" result="hardAlpha"/>
<feOffset dy="4"/>
<feGaussianBlur stdDeviation="2"/>
<feComposite in2="hardAlpha" operator="out"/>
<feColorMatrix type="matrix" values="0 0 0 0 0 0 0 0 0 0 0 0 0 0 0 0 0 0 0.25 0"/>
<feBlend mode="normal" in2="BackgroundImageFix" result="effect1_dropShadow_67_2206"/>
<feBlend mode="normal" in="SourceGraphic" in2="effect1_dropShadow_67_2206" result="shape"/>
</filter>
<filter id="filter4_d_67_2206" x="87.4055" y="174.695" width="30.9565" height="63.6076" filterUnits="userSpaceOnUse" color-interpolation-filters="sRGB">
<feFlood flood-opacity="0" result="BackgroundImageFix"/>
<feColorMatrix in="SourceAlpha" type="matrix" values="0 0 0 0 0 0 0 0 0 0 0 0 0 0 0 0 0 0 127 0" result="hardAlpha"/>
<feOffset dy="4"/>
<feGaussianBlur stdDeviation="2"/>
<feComposite in2="hardAlpha" operator="out"/>
<feColorMatrix type="matrix" values="0 0 0 0 0 0 0 0 0 0 0 0 0 0 0 0 0 0 0.25 0"/>
<feBlend mode="normal" in2="BackgroundImageFix" result="effect1_dropShadow_67_2206"/>
<feBlend mode="normal" in="SourceGraphic" in2="effect1_dropShadow_67_2206" result="shape"/>
</filter>
<filter id="filter5_d_67_2206" x="87.4055" y="174.695" width="30.9565" height="63.6076" filterUnits="userSpaceOnUse" color-interpolation-filters="sRGB">
<feFlood flood-opacity="0" result="BackgroundImageFix"/>
<feColorMatrix in="SourceAlpha" type="matrix" values="0 0 0 0 0 0 0 0 0 0 0 0 0 0 0 0 0 0 127 0" result="hardAlpha"/>
<feOffset dy="4"/>
<feGaussianBlur stdDeviation="2"/>
<feComposite in2="hardAlpha" operator="out"/>
<feColorMatrix type="matrix" values="0 0 0 0 0 0 0 0 0 0 0 0 0 0 0 0 0 0 0.25 0"/>
<feBlend mode="normal" in2="BackgroundImageFix" result="effect1_dropShadow_67_2206"/>
<feBlend mode="normal" in="SourceGraphic" in2="effect1_dropShadow_67_2206" result="shape"/>
</filter>
<filter id="filter6_d_67_2206" x="62.8203" y="138.903" width="44.0635" height="59.7686" filterUnits="userSpaceOnUse" color-interpolation-filters="sRGB">
<feFlood flood-opacity="0" result="BackgroundImageFix"/>
<feColorMatrix in="SourceAlpha" type="matrix" values="0 0 0 0 0 0 0 0 0 0 0 0 0 0 0 0 0 0 127 0" result="hardAlpha"/>
<feOffset dy="4"/>
<feGaussianBlur stdDeviation="2"/>
<feComposite in2="hardAlpha" operator="out"/>
<feColorMatrix type="matrix" values="0 0 0 0 0 0 0 0 0 0 0 0 0 0 0 0 0 0 0.25 0"/>
<feBlend mode="normal" in2="BackgroundImageFix" result="effect1_dropShadow_67_2206"/>
<feBlend mode="normal" in="SourceGraphic" in2="effect1_dropShadow_67_2206" result="shape"/>
</filter>
<filter id="filter7_d_67_2206" x="62.8203" y="138.903" width="44.0635" height="59.7686" filterUnits="userSpaceOnUse" color-interpolation-filters="sRGB">
<feFlood flood-opacity="0" result="BackgroundImageFix"/>
<feColorMatrix in="SourceAlpha" type="matrix" values="0 0 0 0 0 0 0 0 0 0 0 0 0 0 0 0 0 0 127 0" result="hardAlpha"/>
<feOffset dy="4"/>
<feGaussianBlur stdDeviation="2"/>
<feComposite in2="hardAlpha" operator="out"/>
<feColorMatrix type="matrix" values="0 0 0 0 0 0 0 0 0 0 0 0 0 0 0 0 0 0 0.25 0"/>
<feBlend mode="normal" in2="BackgroundImageFix" result="effect1_dropShadow_67_2206"/>
<feBlend mode="normal" in="SourceGraphic" in2="effect1_dropShadow_67_2206" result="shape"/>
</filter>
<filter id="filter8_d_67_2206" x="98.8838" y="138.903" width="43.8696" height="59.7686" filterUnits="userSpaceOnUse" color-interpolation-filters="sRGB">
<feFlood flood-opacity="0" result="BackgroundImageFix"/>
<feColorMatrix in="SourceAlpha" type="matrix" values="0 0 0 0 0 0 0 0 0 0 0 0 0 0 0 0 0 0 127 0" result="hardAlpha"/>
<feOffset dy="4"/>
<feGaussianBlur stdDeviation="2"/>
<feComposite in2="hardAlpha" operator="out"/>
<feColorMatrix type="matrix" values="0 0 0 0 0 0 0 0 0 0 0 0 0 0 0 0 0 0 0.25 0"/>
<feBlend mode="normal" in2="BackgroundImageFix" result="effect1_dropShadow_67_2206"/>
<feBlend mode="normal" in="SourceGraphic" in2="effect1_dropShadow_67_2206" result="shape"/>
</filter>
<filter id="filter9_d_67_2206" x="98.8838" y="138.903" width="43.8696" height="59.7686" filterUnits="userSpaceOnUse" color-interpolation-filters="sRGB">
<feFlood flood-opacity="0" result="BackgroundImageFix"/>
<feColorMatrix in="SourceAlpha" type="matrix" values="0 0 0 0 0 0 0 0 0 0 0 0 0 0 0 0 0 0 127 0" result="hardAlpha"/>
<feOffset dy="4"/>
<feGaussianBlur stdDeviation="2"/>
<feComposite in2="hardAlpha" operator="out"/>
<feColorMatrix type="matrix" values="0 0 0 0 0 0 0 0 0 0 0 0 0 0 0 0 0 0 0.25 0"/>
<feBlend mode="normal" in2="BackgroundImageFix" result="effect1_dropShadow_67_2206"/>
<feBlend mode="normal" in="SourceGraphic" in2="effect1_dropShadow_67_2206" result="shape"/>
</filter>
<filter id="filter10_d_67_2206" x="43.1714" y="61.6711" width="21.0569" height="39.5511" filterUnits="userSpaceOnUse" color-interpolation-filters="sRGB">
<feFlood flood-opacity="0" result="BackgroundImageFix"/>
<feColorMatrix in="SourceAlpha" type="matrix" values="0 0 0 0 0 0 0 0 0 0 0 0 0 0 0 0 0 0 127 0" result="hardAlpha"/>
<feOffset dy="4"/>
<feGaussianBlur stdDeviation="2"/>
<feComposite in2="hardAlpha" operator="out"/>
<feColorMatrix type="matrix" values="0 0 0 0 0 0 0 0 0 0 0 0 0 0 0 0 0 0 0.25 0"/>
<feBlend mode="normal" in2="BackgroundImageFix" result="effect1_dropShadow_67_2206"/>
<feBlend mode="normal" in="SourceGraphic" in2="effect1_dropShadow_67_2206" result="shape"/>
</filter>
<filter id="filter11_d_67_2206" x="43.1714" y="61.6711" width="21.0569" height="39.5511" filterUnits="userSpaceOnUse" color-interpolation-filters="sRGB">
<feFlood flood-opacity="0" result="BackgroundImageFix"/>
<feColorMatrix in="SourceAlpha" type="matrix" values="0 0 0 0 0 0 0 0 0 0 0 0 0 0 0 0 0 0 127 0" result="hardAlpha"/>
<feOffset dy="4"/>
<feGaussianBlur stdDeviation="2"/>
<feComposite in2="hardAlpha" operator="out"/>
<feColorMatrix type="matrix" values="0 0 0 0 0 0 0 0 0 0 0 0 0 0 0 0 0 0 0.25 0"/>
<feBlend mode="normal" in2="BackgroundImageFix" result="effect1_dropShadow_67_2206"/>
<feBlend mode="normal" in="SourceGraphic" in2="effect1_dropShadow_67_2206" result="shape"/>
</filter>
<filter id="filter12_d_67_2206" x="141.54" y="61.5548" width="21.0874" height="39.5511" filterUnits="userSpaceOnUse" color-interpolation-filters="sRGB">
<feFlood flood-opacity="0" result="BackgroundImageFix"/>
<feColorMatrix in="SourceAlpha" type="matrix" values="0 0 0 0 0 0 0 0 0 0 0 0 0 0 0 0 0 0 127 0" result="hardAlpha"/>
<feOffset dy="4"/>
<feGaussianBlur stdDeviation="2"/>
<feComposite in2="hardAlpha" operator="out"/>
<feColorMatrix type="matrix" values="0 0 0 0 0 0 0 0 0 0 0 0 0 0 0 0 0 0 0.25 0"/>
<feBlend mode="normal" in2="BackgroundImageFix" result="effect1_dropShadow_67_2206"/>
<feBlend mode="normal" in="SourceGraphic" in2="effect1_dropShadow_67_2206" result="shape"/>
</filter>
<filter id="filter13_d_67_2206" x="141.54" y="61.5548" width="21.0874" height="39.5511" filterUnits="userSpaceOnUse" color-interpolation-filters="sRGB">
<feFlood flood-opacity="0" result="BackgroundImageFix"/>
<feColorMatrix in="SourceAlpha" type="matrix" values="0 0 0 0 0 0 0 0 0 0 0 0 0 0 0 0 0 0 127 0" result="hardAlpha"/>
<feOffset dy="4"/>
<feGaussianBlur stdDeviation="2"/>
<feComposite in2="hardAlpha" operator="out"/>
<feColorMatrix type="matrix" values="0 0 0 0 0 0 0 0 0 0 0 0 0 0 0 0 0 0 0.25 0"/>
<feBlend mode="normal" in2="BackgroundImageFix" result="effect1_dropShadow_67_2206"/>
<feBlend mode="normal" in="SourceGraphic" in2="effect1_dropShadow_67_2206" result="shape"/>
</filter>
<filter id="filter14_d_67_2206" x="48.5864" y="68.7146" width="15.6416" height="22.4353" filterUnits="userSpaceOnUse" color-interpolation-filters="sRGB">
<feFlood flood-opacity="0" result="BackgroundImageFix"/>
<feColorMatrix in="SourceAlpha" type="matrix" values="0 0 0 0 0 0 0 0 0 0 0 0 0 0 0 0 0 0 127 0" result="hardAlpha"/>
<feOffset dy="4"/>
<feGaussianBlur stdDeviation="2"/>
<feComposite in2="hardAlpha" operator="out"/>
<feColorMatrix type="matrix" values="0 0 0 0 0 0 0 0 0 0 0 0 0 0 0 0 0 0 0.25 0"/>
<feBlend mode="normal" in2="BackgroundImageFix" result="effect1_dropShadow_67_2206"/>
<feBlend mode="normal" in="SourceGraphic" in2="effect1_dropShadow_67_2206" result="shape"/>
</filter>
<filter id="filter15_d_67_2206" x="48.5864" y="68.7146" width="15.6416" height="22.4353" filterUnits="userSpaceOnUse" color-interpolation-filters="sRGB">
<feFlood flood-opacity="0" result="BackgroundImageFix"/>
<feColorMatrix in="SourceAlpha" type="matrix" values="0 0 0 0 0 0 0 0 0 0 0 0 0 0 0 0 0 0 127 0" result="hardAlpha"/>
<feOffset dy="4"/>
<feGaussianBlur stdDeviation="2"/>
<feComposite in2="hardAlpha" operator="out"/>
<feColorMatrix type="matrix" values="0 0 0 0 0 0 0 0 0 0 0 0 0 0 0 0 0 0 0.25 0"/>
<feBlend mode="normal" in2="BackgroundImageFix" result="effect1_dropShadow_67_2206"/>
<feBlend mode="normal" in="SourceGraphic" in2="effect1_dropShadow_67_2206" result="shape"/>
</filter>
<filter id="filter16_d_67_2206" x="141.54" y="68.8309" width="15.6416" height="22.4254" filterUnits="userSpaceOnUse" color-interpolation-filters="sRGB">
<feFlood flood-opacity="0" result="BackgroundImageFix"/>
<feColorMatrix in="SourceAlpha" type="matrix" values="0 0 0 0 0 0 0 0 0 0 0 0 0 0 0 0 0 0 127 0" result="hardAlpha"/>
<feOffset dy="4"/>
<feGaussianBlur stdDeviation="2"/>
<feComposite in2="hardAlpha" operator="out"/>
<feColorMatrix type="matrix" values="0 0 0 0 0 0 0 0 0 0 0 0 0 0 0 0 0 0 0.25 0"/>
<feBlend mode="normal" in2="BackgroundImageFix" result="effect1_dropShadow_67_2206"/>
<feBlend mode="normal" in="SourceGraphic" in2="effect1_dropShadow_67_2206" result="shape"/>
</filter>
<filter id="filter17_d_67_2206" x="141.54" y="68.8309" width="15.6416" height="22.4254" filterUnits="userSpaceOnUse" color-interpolation-filters="sRGB">
<feFlood flood-opacity="0" result="BackgroundImageFix"/>
<feColorMatrix in="SourceAlpha" type="matrix" values="0 0 0 0 0 0 0 0 0 0 0 0 0 0 0 0 0 0 127 0" result="hardAlpha"/>
<feOffset dy="4"/>
<feGaussianBlur stdDeviation="2"/>
<feComposite in2="hardAlpha" operator="out"/>
<feColorMatrix type="matrix" values="0 0 0 0 0 0 0 0 0 0 0 0 0 0 0 0 0 0 0.25 0"/>
<feBlend mode="normal" in2="BackgroundImageFix" result="effect1_dropShadow_67_2206"/>
<feBlend mode="normal" in="SourceGraphic" in2="effect1_dropShadow_67_2206" result="shape"/>
</filter>
<filter id="filter18_d_67_2206" x="56.1504" y="60.765" width="93.3503" height="80.9802" filterUnits="userSpaceOnUse" color-interpolation-filters="sRGB">
<feFlood flood-opacity="0" result="BackgroundImageFix"/>
<feColorMatrix in="SourceAlpha" type="matrix" values="0 0 0 0 0 0 0 0 0 0 0 0 0 0 0 0 0 0 127 0" result="hardAlpha"/>
<feOffset dy="4"/>
<feGaussianBlur stdDeviation="2"/>
<feComposite in2="hardAlpha" operator="out"/>
<feColorMatrix type="matrix" values="0 0 0 0 0 0 0 0 0 0 0 0 0 0 0 0 0 0 0.25 0"/>
<feBlend mode="normal" in2="BackgroundImageFix" result="effect1_dropShadow_67_2206"/>
<feBlend mode="normal" in="SourceGraphic" in2="effect1_dropShadow_67_2206" result="shape"/>
</filter>
<filter id="filter19_d_67_2206" x="56.1504" y="60.765" width="93.3503" height="80.9802" filterUnits="userSpaceOnUse" color-interpolation-filters="sRGB">
<feFlood flood-opacity="0" result="BackgroundImageFix"/>
<feColorMatrix in="SourceAlpha" type="matrix" values="0 0 0 0 0 0 0 0 0 0 0 0 0 0 0 0 0 0 127 0" result="hardAlpha"/>
<feOffset dy="4"/>
<feGaussianBlur stdDeviation="2"/>
<feComposite in2="hardAlpha" operator="out"/>
<feColorMatrix type="matrix" values="0 0 0 0 0 0 0 0 0 0 0 0 0 0 0 0 0 0 0.25 0"/>
<feBlend mode="normal" in2="BackgroundImageFix" result="effect1_dropShadow_67_2206"/>
<feBlend mode="normal" in="SourceGraphic" in2="effect1_dropShadow_67_2206" result="shape"/>
</filter>
<filter id="filter20_d_67_2206" x="61.9285" y="63.2856" width="12.188" height="10.443" filterUnits="userSpaceOnUse" color-interpolation-filters="sRGB">
<feFlood flood-opacity="0" result="BackgroundImageFix"/>
<feColorMatrix in="SourceAlpha" type="matrix" values="0 0 0 0 0 0 0 0 0 0 0 0 0 0 0 0 0 0 127 0" result="hardAlpha"/>
<feOffset dy="4"/>
<feGaussianBlur stdDeviation="2"/>
<feComposite in2="hardAlpha" operator="out"/>
<feColorMatrix type="matrix" values="0 0 0 0 0 0 0 0 0 0 0 0 0 0 0 0 0 0 0.25 0"/>
<feBlend mode="normal" in2="BackgroundImageFix" result="effect1_dropShadow_67_2206"/>
<feBlend mode="normal" in="SourceGraphic" in2="effect1_dropShadow_67_2206" result="shape"/>
</filter>
<filter id="filter21_d_67_2206" x="61.9285" y="63.2856" width="12.188" height="10.443" filterUnits="userSpaceOnUse" color-interpolation-filters="sRGB">
<feFlood flood-opacity="0" result="BackgroundImageFix"/>
<feColorMatrix in="SourceAlpha" type="matrix" values="0 0 0 0 0 0 0 0 0 0 0 0 0 0 0 0 0 0 127 0" result="hardAlpha"/>
<feOffset dy="4"/>
<feGaussianBlur stdDeviation="2"/>
<feComposite in2="hardAlpha" operator="out"/>
<feColorMatrix type="matrix" values="0 0 0 0 0 0 0 0 0 0 0 0 0 0 0 0 0 0 0.25 0"/>
<feBlend mode="normal" in2="BackgroundImageFix" result="effect1_dropShadow_67_2206"/>
<feBlend mode="normal" in="SourceGraphic" in2="effect1_dropShadow_67_2206" result="shape"/>
</filter>
<filter id="filter22_d_67_2206" x="131.612" y="63.5959" width="11.8391" height="9.86133" filterUnits="userSpaceOnUse" color-interpolation-filters="sRGB">
<feFlood flood-opacity="0" result="BackgroundImageFix"/>
<feColorMatrix in="SourceAlpha" type="matrix" values="0 0 0 0 0 0 0 0 0 0 0 0 0 0 0 0 0 0 127 0" result="hardAlpha"/>
<feOffset dy="4"/>
<feGaussianBlur stdDeviation="2"/>
<feComposite in2="hardAlpha" operator="out"/>
<feColorMatrix type="matrix" values="0 0 0 0 0 0 0 0 0 0 0 0 0 0 0 0 0 0 0.25 0"/>
<feBlend mode="normal" in2="BackgroundImageFix" result="effect1_dropShadow_67_2206"/>
<feBlend mode="normal" in="SourceGraphic" in2="effect1_dropShadow_67_2206" result="shape"/>
</filter>
<filter id="filter23_d_67_2206" x="131.612" y="63.5959" width="11.8391" height="9.86133" filterUnits="userSpaceOnUse" color-interpolation-filters="sRGB">
<feFlood flood-opacity="0" result="BackgroundImageFix"/>
<feColorMatrix in="SourceAlpha" type="matrix" values="0 0 0 0 0 0 0 0 0 0 0 0 0 0 0 0 0 0 127 0" result="hardAlpha"/>
<feOffset dy="4"/>
<feGaussianBlur stdDeviation="2"/>
<feComposite in2="hardAlpha" operator="out"/>
<feColorMatrix type="matrix" values="0 0 0 0 0 0 0 0 0 0 0 0 0 0 0 0 0 0 0.25 0"/>
<feBlend mode="normal" in2="BackgroundImageFix" result="effect1_dropShadow_67_2206"/>
<feBlend mode="normal" in="SourceGraphic" in2="effect1_dropShadow_67_2206" result="shape"/>
</filter>
<filter id="filter24_d_67_2206" x="61.6182" y="67.7451" width="82.5312" height="45.4208" filterUnits="userSpaceOnUse" color-interpolation-filters="sRGB">
<feFlood flood-opacity="0" result="BackgroundImageFix"/>
<feColorMatrix in="SourceAlpha" type="matrix" values="0 0 0 0 0 0 0 0 0 0 0 0 0 0 0 0 0 0 127 0" result="hardAlpha"/>
<feOffset dy="4"/>
<feGaussianBlur stdDeviation="2"/>
<feComposite in2="hardAlpha" operator="out"/>
<feColorMatrix type="matrix" values="0 0 0 0 0 0 0 0 0 0 0 0 0 0 0 0 0 0 0.25 0"/>
<feBlend mode="normal" in2="BackgroundImageFix" result="effect1_dropShadow_67_2206"/>
<feBlend mode="normal" in="SourceGraphic" in2="effect1_dropShadow_67_2206" result="shape"/>
</filter>
<filter id="filter25_d_67_2206" x="61.6182" y="67.7451" width="82.5312" height="45.4208" filterUnits="userSpaceOnUse" color-interpolation-filters="sRGB">
<feFlood flood-opacity="0" result="BackgroundImageFix"/>
<feColorMatrix in="SourceAlpha" type="matrix" values="0 0 0 0 0 0 0 0 0 0 0 0 0 0 0 0 0 0 127 0" result="hardAlpha"/>
<feOffset dy="4"/>
<feGaussianBlur stdDeviation="2"/>
<feComposite in2="hardAlpha" operator="out"/>
<feColorMatrix type="matrix" values="0 0 0 0 0 0 0 0 0 0 0 0 0 0 0 0 0 0 0.25 0"/>
<feBlend mode="normal" in2="BackgroundImageFix" result="effect1_dropShadow_67_2206"/>
<feBlend mode="normal" in="SourceGraphic" in2="effect1_dropShadow_67_2206" result="shape"/>
</filter>
<filter id="filter26_d_67_2206" x="79.999" y="107.144" width="45.8086" height="21.6006" filterUnits="userSpaceOnUse" color-interpolation-filters="sRGB">
<feFlood flood-opacity="0" result="BackgroundImageFix"/>
<feColorMatrix in="SourceAlpha" type="matrix" values="0 0 0 0 0 0 0 0 0 0 0 0 0 0 0 0 0 0 127 0" result="hardAlpha"/>
<feOffset dy="4"/>
<feGaussianBlur stdDeviation="2"/>
<feComposite in2="hardAlpha" operator="out"/>
<feColorMatrix type="matrix" values="0 0 0 0 0 0 0 0 0 0 0 0 0 0 0 0 0 0 0.25 0"/>
<feBlend mode="normal" in2="BackgroundImageFix" result="effect1_dropShadow_67_2206"/>
<feBlend mode="normal" in="SourceGraphic" in2="effect1_dropShadow_67_2206" result="shape"/>
</filter>
<filter id="filter27_d_67_2206" x="79.999" y="107.144" width="45.8086" height="21.6006" filterUnits="userSpaceOnUse" color-interpolation-filters="sRGB">
<feFlood flood-opacity="0" result="BackgroundImageFix"/>
<feColorMatrix in="SourceAlpha" type="matrix" values="0 0 0 0 0 0 0 0 0 0 0 0 0 0 0 0 0 0 127 0" result="hardAlpha"/>
<feOffset dy="4"/>
<feGaussianBlur stdDeviation="2"/>
<feComposite in2="hardAlpha" operator="out"/>
<feColorMatrix type="matrix" values="0 0 0 0 0 0 0 0 0 0 0 0 0 0 0 0 0 0 0.25 0"/>
<feBlend mode="normal" in2="BackgroundImageFix" result="effect1_dropShadow_67_2206"/>
<feBlend mode="normal" in="SourceGraphic" in2="effect1_dropShadow_67_2206" result="shape"/>
</filter>
<filter id="filter28_d_67_2206" x="136.153" y="196.566" width="31.3381" height="38.6346" filterUnits="userSpaceOnUse" color-interpolation-filters="sRGB">
<feFlood flood-opacity="0" result="BackgroundImageFix"/>
<feColorMatrix in="SourceAlpha" type="matrix" values="0 0 0 0 0 0 0 0 0 0 0 0 0 0 0 0 0 0 127 0" result="hardAlpha"/>
<feOffset dy="4"/>
<feGaussianBlur stdDeviation="2"/>
<feComposite in2="hardAlpha" operator="out"/>
<feColorMatrix type="matrix" values="0 0 0 0 0 0 0 0 0 0 0 0 0 0 0 0 0 0 0.25 0"/>
<feBlend mode="normal" in2="BackgroundImageFix" result="effect1_dropShadow_67_2206"/>
<feBlend mode="normal" in="SourceGraphic" in2="effect1_dropShadow_67_2206" result="shape"/>
</filter>
<filter id="filter29_d_67_2206" x="136.153" y="196.566" width="31.3381" height="38.6346" filterUnits="userSpaceOnUse" color-interpolation-filters="sRGB">
<feFlood flood-opacity="0" result="BackgroundImageFix"/>
<feColorMatrix in="SourceAlpha" type="matrix" values="0 0 0 0 0 0 0 0 0 0 0 0 0 0 0 0 0 0 127 0" result="hardAlpha"/>
<feOffset dy="4"/>
<feGaussianBlur stdDeviation="2"/>
<feComposite in2="hardAlpha" operator="out"/>
<feColorMatrix type="matrix" values="0 0 0 0 0 0 0 0 0 0 0 0 0 0 0 0 0 0 0.25 0"/>
<feBlend mode="normal" in2="BackgroundImageFix" result="effect1_dropShadow_67_2206"/>
<feBlend mode="normal" in="SourceGraphic" in2="effect1_dropShadow_67_2206" result="shape"/>
</filter>
<filter id="filter30_d_67_2206" x="139.407" y="204.786" width="24.6746" height="24.6745" filterUnits="userSpaceOnUse" color-interpolation-filters="sRGB">
<feFlood flood-opacity="0" result="BackgroundImageFix"/>
<feColorMatrix in="SourceAlpha" type="matrix" values="0 0 0 0 0 0 0 0 0 0 0 0 0 0 0 0 0 0 127 0" result="hardAlpha"/>
<feOffset dy="4"/>
<feGaussianBlur stdDeviation="2"/>
<feComposite in2="hardAlpha" operator="out"/>
<feColorMatrix type="matrix" values="0 0 0 0 0 0 0 0 0 0 0 0 0 0 0 0 0 0 0.25 0"/>
<feBlend mode="normal" in2="BackgroundImageFix" result="effect1_dropShadow_67_2206"/>
<feBlend mode="normal" in="SourceGraphic" in2="effect1_dropShadow_67_2206" result="shape"/>
</filter>
<filter id="filter31_d_67_2206" x="139.407" y="204.786" width="24.6746" height="24.6745" filterUnits="userSpaceOnUse" color-interpolation-filters="sRGB">
<feFlood flood-opacity="0" result="BackgroundImageFix"/>
<feColorMatrix in="SourceAlpha" type="matrix" values="0 0 0 0 0 0 0 0 0 0 0 0 0 0 0 0 0 0 127 0" result="hardAlpha"/>
<feOffset dy="4"/>
<feGaussianBlur stdDeviation="2"/>
<feComposite in2="hardAlpha" operator="out"/>
<feColorMatrix type="matrix" values="0 0 0 0 0 0 0 0 0 0 0 0 0 0 0 0 0 0 0.25 0"/>
<feBlend mode="normal" in2="BackgroundImageFix" result="effect1_dropShadow_67_2206"/>
<feBlend mode="normal" in="SourceGraphic" in2="effect1_dropShadow_67_2206" result="shape"/>
</filter>
<filter id="filter32_d_67_2206" x="42.2681" y="196.566" width="45.2268" height="12.2656" filterUnits="userSpaceOnUse" color-interpolation-filters="sRGB">
<feFlood flood-opacity="0" result="BackgroundImageFix"/>
<feColorMatrix in="SourceAlpha" type="matrix" values="0 0 0 0 0 0 0 0 0 0 0 0 0 0 0 0 0 0 127 0" result="hardAlpha"/>
<feOffset dy="4"/>
<feGaussianBlur stdDeviation="2"/>
<feComposite in2="hardAlpha" operator="out"/>
<feColorMatrix type="matrix" values="0 0 0 0 0 0 0 0 0 0 0 0 0 0 0 0 0 0 0.25 0"/>
<feBlend mode="normal" in2="BackgroundImageFix" result="effect1_dropShadow_67_2206"/>
<feBlend mode="normal" in="SourceGraphic" in2="effect1_dropShadow_67_2206" result="shape"/>
</filter>
<filter id="filter33_d_67_2206" x="42.2681" y="196.566" width="45.2268" height="12.2656" filterUnits="userSpaceOnUse" color-interpolation-filters="sRGB">
<feFlood flood-opacity="0" result="BackgroundImageFix"/>
<feColorMatrix in="SourceAlpha" type="matrix" values="0 0 0 0 0 0 0 0 0 0 0 0 0 0 0 0 0 0 127 0" result="hardAlpha"/>
<feOffset dy="4"/>
<feGaussianBlur stdDeviation="2"/>
<feComposite in2="hardAlpha" operator="out"/>
<feColorMatrix type="matrix" values="0 0 0 0 0 0 0 0 0 0 0 0 0 0 0 0 0 0 0.25 0"/>
<feBlend mode="normal" in2="BackgroundImageFix" result="effect1_dropShadow_67_2206"/>
<feBlend mode="normal" in="SourceGraphic" in2="effect1_dropShadow_67_2206" result="shape"/>
</filter>
<filter id="filter34_d_67_2206" x="42.2681" y="215.257" width="45.2268" height="23.0458" filterUnits="userSpaceOnUse" color-interpolation-filters="sRGB">
<feFlood flood-opacity="0" result="BackgroundImageFix"/>
<feColorMatrix in="SourceAlpha" type="matrix" values="0 0 0 0 0 0 0 0 0 0 0 0 0 0 0 0 0 0 127 0" result="hardAlpha"/>
<feOffset dy="4"/>
<feGaussianBlur stdDeviation="2"/>
<feComposite in2="hardAlpha" operator="out"/>
<feColorMatrix type="matrix" values="0 0 0 0 0 0 0 0 0 0 0 0 0 0 0 0 0 0 0.25 0"/>
<feBlend mode="normal" in2="BackgroundImageFix" result="effect1_dropShadow_67_2206"/>
<feBlend mode="normal" in="SourceGraphic" in2="effect1_dropShadow_67_2206" result="shape"/>
</filter>
<filter id="filter35_d_67_2206" x="42.2681" y="215.257" width="45.2268" height="23.0458" filterUnits="userSpaceOnUse" color-interpolation-filters="sRGB">
<feFlood flood-opacity="0" result="BackgroundImageFix"/>
<feColorMatrix in="SourceAlpha" type="matrix" values="0 0 0 0 0 0 0 0 0 0 0 0 0 0 0 0 0 0 127 0" result="hardAlpha"/>
<feOffset dy="4"/>
<feGaussianBlur stdDeviation="2"/>
<feComposite in2="hardAlpha" operator="out"/>
<feColorMatrix type="matrix" values="0 0 0 0 0 0 0 0 0 0 0 0 0 0 0 0 0 0 0.25 0"/>
<feBlend mode="normal" in2="BackgroundImageFix" result="effect1_dropShadow_67_2206"/>
<feBlend mode="normal" in="SourceGraphic" in2="effect1_dropShadow_67_2206" result="shape"/>
</filter>
<filter id="filter36_d_67_2206" x="42.2681" y="203.933" width="45.2268" height="24.1704" filterUnits="userSpaceOnUse" color-interpolation-filters="sRGB">
<feFlood flood-opacity="0" result="BackgroundImageFix"/>
<feColorMatrix in="SourceAlpha" type="matrix" values="0 0 0 0 0 0 0 0 0 0 0 0 0 0 0 0 0 0 127 0" result="hardAlpha"/>
<feOffset dy="4"/>
<feGaussianBlur stdDeviation="2"/>
<feComposite in2="hardAlpha" operator="out"/>
<feColorMatrix type="matrix" values="0 0 0 0 0 0 0 0 0 0 0 0 0 0 0 0 0 0 0.25 0"/>
<feBlend mode="normal" in2="BackgroundImageFix" result="effect1_dropShadow_67_2206"/>
<feBlend mode="normal" in="SourceGraphic" in2="effect1_dropShadow_67_2206" result="shape"/>
</filter>
<filter id="filter37_d_67_2206" x="42.2681" y="203.933" width="45.2268" height="24.1704" filterUnits="userSpaceOnUse" color-interpolation-filters="sRGB">
<feFlood flood-opacity="0" result="BackgroundImageFix"/>
<feColorMatrix in="SourceAlpha" type="matrix" values="0 0 0 0 0 0 0 0 0 0 0 0 0 0 0 0 0 0 127 0" result="hardAlpha"/>
<feOffset dy="4"/>
<feGaussianBlur stdDeviation="2"/>
<feComposite in2="hardAlpha" operator="out"/>
<feColorMatrix type="matrix" values="0 0 0 0 0 0 0 0 0 0 0 0 0 0 0 0 0 0 0.25 0"/>
<feBlend mode="normal" in2="BackgroundImageFix" result="effect1_dropShadow_67_2206"/>
<feBlend mode="normal" in="SourceGraphic" in2="effect1_dropShadow_67_2206" result="shape"/>
</filter>
<filter id="filter38_d_67_2206" x="52.04" y="58.516" width="101.765" height="20.0212" filterUnits="userSpaceOnUse" color-interpolation-filters="sRGB">
<feFlood flood-opacity="0" result="BackgroundImageFix"/>
<feColorMatrix in="SourceAlpha" type="matrix" values="0 0 0 0 0 0 0 0 0 0 0 0 0 0 0 0 0 0 127 0" result="hardAlpha"/>
<feOffset dy="4"/>
<feGaussianBlur stdDeviation="2"/>
<feComposite in2="hardAlpha" operator="out"/>
<feColorMatrix type="matrix" values="0 0 0 0 0 0 0 0 0 0 0 0 0 0 0 0 0 0 0.25 0"/>
<feBlend mode="normal" in2="BackgroundImageFix" result="effect1_dropShadow_67_2206"/>
<feBlend mode="normal" in="SourceGraphic" in2="effect1_dropShadow_67_2206" result="shape"/>
</filter>
<filter id="filter39_d_67_2206" x="52.04" y="58.516" width="101.765" height="20.0212" filterUnits="userSpaceOnUse" color-interpolation-filters="sRGB">
<feFlood flood-opacity="0" result="BackgroundImageFix"/>
<feColorMatrix in="SourceAlpha" type="matrix" values="0 0 0 0 0 0 0 0 0 0 0 0 0 0 0 0 0 0 127 0" result="hardAlpha"/>
<feOffset dy="4"/>
<feGaussianBlur stdDeviation="2"/>
<feComposite in2="hardAlpha" operator="out"/>
<feColorMatrix type="matrix" values="0 0 0 0 0 0 0 0 0 0 0 0 0 0 0 0 0 0 0.25 0"/>
<feBlend mode="normal" in2="BackgroundImageFix" result="effect1_dropShadow_67_2206"/>
<feBlend mode="normal" in="SourceGraphic" in2="effect1_dropShadow_67_2206" result="shape"/>
</filter>
<filter id="filter40_d_67_2206" x="98.8838" y="0.0388184" width="69.3081" height="52.8273" filterUnits="userSpaceOnUse" color-interpolation-filters="sRGB">
<feFlood flood-opacity="0" result="BackgroundImageFix"/>
<feColorMatrix in="SourceAlpha" type="matrix" values="0 0 0 0 0 0 0 0 0 0 0 0 0 0 0 0 0 0 127 0" result="hardAlpha"/>
<feOffset dy="4"/>
<feGaussianBlur stdDeviation="2"/>
<feComposite in2="hardAlpha" operator="out"/>
<feColorMatrix type="matrix" values="0 0 0 0 0 0 0 0 0 0 0 0 0 0 0 0 0 0 0.25 0"/>
<feBlend mode="normal" in2="BackgroundImageFix" result="effect1_dropShadow_67_2206"/>
<feBlend mode="normal" in="SourceGraphic" in2="effect1_dropShadow_67_2206" result="shape"/>
</filter>
<filter id="filter41_d_67_2206" x="98.8838" y="0.0388184" width="69.3081" height="52.8273" filterUnits="userSpaceOnUse" color-interpolation-filters="sRGB">
<feFlood flood-opacity="0" result="BackgroundImageFix"/>
<feColorMatrix in="SourceAlpha" type="matrix" values="0 0 0 0 0 0 0 0 0 0 0 0 0 0 0 0 0 0 127 0" result="hardAlpha"/>
<feOffset dy="4"/>
<feGaussianBlur stdDeviation="2"/>
<feComposite in2="hardAlpha" operator="out"/>
<feColorMatrix type="matrix" values="0 0 0 0 0 0 0 0 0 0 0 0 0 0 0 0 0 0 0.25 0"/>
<feBlend mode="normal" in2="BackgroundImageFix" result="effect1_dropShadow_67_2206"/>
<feBlend mode="normal" in="SourceGraphic" in2="effect1_dropShadow_67_2206" result="shape"/>
</filter>
<filter id="filter42_d_67_2206" x="37.6147" y="0" width="69.2693" height="52.8273" filterUnits="userSpaceOnUse" color-interpolation-filters="sRGB">
<feFlood flood-opacity="0" result="BackgroundImageFix"/>
<feColorMatrix in="SourceAlpha" type="matrix" values="0 0 0 0 0 0 0 0 0 0 0 0 0 0 0 0 0 0 127 0" result="hardAlpha"/>
<feOffset dy="4"/>
<feGaussianBlur stdDeviation="2"/>
<feComposite in2="hardAlpha" operator="out"/>
<feColorMatrix type="matrix" values="0 0 0 0 0 0 0 0 0 0 0 0 0 0 0 0 0 0 0.25 0"/>
<feBlend mode="normal" in2="BackgroundImageFix" result="effect1_dropShadow_67_2206"/>
<feBlend mode="normal" in="SourceGraphic" in2="effect1_dropShadow_67_2206" result="shape"/>
</filter>
<filter id="filter43_d_67_2206" x="37.6147" y="0" width="69.2693" height="52.8273" filterUnits="userSpaceOnUse" color-interpolation-filters="sRGB">
<feFlood flood-opacity="0" result="BackgroundImageFix"/>
<feColorMatrix in="SourceAlpha" type="matrix" values="0 0 0 0 0 0 0 0 0 0 0 0 0 0 0 0 0 0 127 0" result="hardAlpha"/>
<feOffset dy="4"/>
<feGaussianBlur stdDeviation="2"/>
<feComposite in2="hardAlpha" operator="out"/>
<feColorMatrix type="matrix" values="0 0 0 0 0 0 0 0 0 0 0 0 0 0 0 0 0 0 0.25 0"/>
<feBlend mode="normal" in2="BackgroundImageFix" result="effect1_dropShadow_67_2206"/>
<feBlend mode="normal" in="SourceGraphic" in2="effect1_dropShadow_67_2206" result="shape"/>
</filter>
<filter id="filter44_d_67_2206" x="57.1975" y="0.0388184" width="91.3726" height="50.3068" filterUnits="userSpaceOnUse" color-interpolation-filters="sRGB">
<feFlood flood-opacity="0" result="BackgroundImageFix"/>
<feColorMatrix in="SourceAlpha" type="matrix" values="0 0 0 0 0 0 0 0 0 0 0 0 0 0 0 0 0 0 127 0" result="hardAlpha"/>
<feOffset dy="4"/>
<feGaussianBlur stdDeviation="2"/>
<feComposite in2="hardAlpha" operator="out"/>
<feColorMatrix type="matrix" values="0 0 0 0 0 0 0 0 0 0 0 0 0 0 0 0 0 0 0.25 0"/>
<feBlend mode="normal" in2="BackgroundImageFix" result="effect1_dropShadow_67_2206"/>
<feBlend mode="normal" in="SourceGraphic" in2="effect1_dropShadow_67_2206" result="shape"/>
</filter>
<filter id="filter45_d_67_2206" x="57.1975" y="0.0388184" width="91.3726" height="50.3068" filterUnits="userSpaceOnUse" color-interpolation-filters="sRGB">
<feFlood flood-opacity="0" result="BackgroundImageFix"/>
<feColorMatrix in="SourceAlpha" type="matrix" values="0 0 0 0 0 0 0 0 0 0 0 0 0 0 0 0 0 0 127 0" result="hardAlpha"/>
<feOffset dy="4"/>
<feGaussianBlur stdDeviation="2"/>
<feComposite in2="hardAlpha" operator="out"/>
<feColorMatrix type="matrix" values="0 0 0 0 0 0 0 0 0 0 0 0 0 0 0 0 0 0 0.25 0"/>
<feBlend mode="normal" in2="BackgroundImageFix" result="effect1_dropShadow_67_2206"/>
<feBlend mode="normal" in="SourceGraphic" in2="effect1_dropShadow_67_2206" result="shape"/>
</filter>
<filter id="filter46_d_67_2206" x="51.9624" y="44.2844" width="30.4912" height="19.5171" filterUnits="userSpaceOnUse" color-interpolation-filters="sRGB">
<feFlood flood-opacity="0" result="BackgroundImageFix"/>
<feColorMatrix in="SourceAlpha" type="matrix" values="0 0 0 0 0 0 0 0 0 0 0 0 0 0 0 0 0 0 127 0" result="hardAlpha"/>
<feOffset dy="4"/>
<feGaussianBlur stdDeviation="2"/>
<feComposite in2="hardAlpha" operator="out"/>
<feColorMatrix type="matrix" values="0 0 0 0 0 0 0 0 0 0 0 0 0 0 0 0 0 0 0.25 0"/>
<feBlend mode="normal" in2="BackgroundImageFix" result="effect1_dropShadow_67_2206"/>
<feBlend mode="normal" in="SourceGraphic" in2="effect1_dropShadow_67_2206" result="shape"/>
</filter>
<filter id="filter47_d_67_2206" x="51.9624" y="44.2844" width="30.4912" height="19.5171" filterUnits="userSpaceOnUse" color-interpolation-filters="sRGB">
<feFlood flood-opacity="0" result="BackgroundImageFix"/>
<feColorMatrix in="SourceAlpha" type="matrix" values="0 0 0 0 0 0 0 0 0 0 0 0 0 0 0 0 0 0 127 0" result="hardAlpha"/>
<feOffset dy="4"/>
<feGaussianBlur stdDeviation="2"/>
<feComposite in2="hardAlpha" operator="out"/>
<feColorMatrix type="matrix" values="0 0 0 0 0 0 0 0 0 0 0 0 0 0 0 0 0 0 0.25 0"/>
<feBlend mode="normal" in2="BackgroundImageFix" result="effect1_dropShadow_67_2206"/>
<feBlend mode="normal" in="SourceGraphic" in2="effect1_dropShadow_67_2206" result="shape"/>
</filter>
<filter id="filter48_d_67_2206" x="123.314" y="44.2844" width="30.4912" height="19.5171" filterUnits="userSpaceOnUse" color-interpolation-filters="sRGB">
<feFlood flood-opacity="0" result="BackgroundImageFix"/>
<feColorMatrix in="SourceAlpha" type="matrix" values="0 0 0 0 0 0 0 0 0 0 0 0 0 0 0 0 0 0 127 0" result="hardAlpha"/>
<feOffset dy="4"/>
<feGaussianBlur stdDeviation="2"/>
<feComposite in2="hardAlpha" operator="out"/>
<feColorMatrix type="matrix" values="0 0 0 0 0 0 0 0 0 0 0 0 0 0 0 0 0 0 0.25 0"/>
<feBlend mode="normal" in2="BackgroundImageFix" result="effect1_dropShadow_67_2206"/>
<feBlend mode="normal" in="SourceGraphic" in2="effect1_dropShadow_67_2206" result="shape"/>
</filter>
<filter id="filter49_d_67_2206" x="123.314" y="44.2844" width="30.4912" height="19.5171" filterUnits="userSpaceOnUse" color-interpolation-filters="sRGB">
<feFlood flood-opacity="0" result="BackgroundImageFix"/>
<feColorMatrix in="SourceAlpha" type="matrix" values="0 0 0 0 0 0 0 0 0 0 0 0 0 0 0 0 0 0 127 0" result="hardAlpha"/>
<feOffset dy="4"/>
<feGaussianBlur stdDeviation="2"/>
<feComposite in2="hardAlpha" operator="out"/>
<feColorMatrix type="matrix" values="0 0 0 0 0 0 0 0 0 0 0 0 0 0 0 0 0 0 0.25 0"/>
<feBlend mode="normal" in2="BackgroundImageFix" result="effect1_dropShadow_67_2206"/>
<feBlend mode="normal" in="SourceGraphic" in2="effect1_dropShadow_67_2206" result="shape"/>
</filter>
<filter id="filter50_d_67_2206" x="74.4536" y="42.8496" width="56.8604" height="20.9518" filterUnits="userSpaceOnUse" color-interpolation-filters="sRGB">
<feFlood flood-opacity="0" result="BackgroundImageFix"/>
<feColorMatrix in="SourceAlpha" type="matrix" values="0 0 0 0 0 0 0 0 0 0 0 0 0 0 0 0 0 0 127 0" result="hardAlpha"/>
<feOffset dy="4"/>
<feGaussianBlur stdDeviation="2"/>
<feComposite in2="hardAlpha" operator="out"/>
<feColorMatrix type="matrix" values="0 0 0 0 0 0 0 0 0 0 0 0 0 0 0 0 0 0 0.25 0"/>
<feBlend mode="normal" in2="BackgroundImageFix" result="effect1_dropShadow_67_2206"/>
<feBlend mode="normal" in="SourceGraphic" in2="effect1_dropShadow_67_2206" result="shape"/>
</filter>
<filter id="filter51_d_67_2206" x="74.4536" y="42.8496" width="56.8604" height="20.9518" filterUnits="userSpaceOnUse" color-interpolation-filters="sRGB">
<feFlood flood-opacity="0" result="BackgroundImageFix"/>
<feColorMatrix in="SourceAlpha" type="matrix" values="0 0 0 0 0 0 0 0 0 0 0 0 0 0 0 0 0 0 127 0" result="hardAlpha"/>
<feOffset dy="4"/>
<feGaussianBlur stdDeviation="2"/>
<feComposite in2="hardAlpha" operator="out"/>
<feColorMatrix type="matrix" values="0 0 0 0 0 0 0 0 0 0 0 0 0 0 0 0 0 0 0.25 0"/>
<feBlend mode="normal" in2="BackgroundImageFix" result="effect1_dropShadow_67_2206"/>
<feBlend mode="normal" in="SourceGraphic" in2="effect1_dropShadow_67_2206" result="shape"/>
</filter>
<filter id="filter52_d_67_2206" x="51.9624" y="39.5923" width="101.843" height="16.4536" filterUnits="userSpaceOnUse" color-interpolation-filters="sRGB">
<feFlood flood-opacity="0" result="BackgroundImageFix"/>
<feColorMatrix in="SourceAlpha" type="matrix" values="0 0 0 0 0 0 0 0 0 0 0 0 0 0 0 0 0 0 127 0" result="hardAlpha"/>
<feOffset dy="4"/>
<feGaussianBlur stdDeviation="2"/>
<feComposite in2="hardAlpha" operator="out"/>
<feColorMatrix type="matrix" values="0 0 0 0 0 0 0 0 0 0 0 0 0 0 0 0 0 0 0.25 0"/>
<feBlend mode="normal" in2="BackgroundImageFix" result="effect1_dropShadow_67_2206"/>
<feBlend mode="normal" in="SourceGraphic" in2="effect1_dropShadow_67_2206" result="shape"/>
</filter>
<filter id="filter53_d_67_2206" x="51.9624" y="39.5923" width="101.843" height="16.4536" filterUnits="userSpaceOnUse" color-interpolation-filters="sRGB">
<feFlood flood-opacity="0" result="BackgroundImageFix"/>
<feColorMatrix in="SourceAlpha" type="matrix" values="0 0 0 0 0 0 0 0 0 0 0 0 0 0 0 0 0 0 127 0" result="hardAlpha"/>
<feOffset dy="4"/>
<feGaussianBlur stdDeviation="2"/>
<feComposite in2="hardAlpha" operator="out"/>
<feColorMatrix type="matrix" values="0 0 0 0 0 0 0 0 0 0 0 0 0 0 0 0 0 0 0.25 0"/>
<feBlend mode="normal" in2="BackgroundImageFix" result="effect1_dropShadow_67_2206"/>
<feBlend mode="normal" in="SourceGraphic" in2="effect1_dropShadow_67_2206" result="shape"/>
</filter>
<filter id="filter54_d_67_2206" x="51.9624" y="55.8015" width="101.843" height="10.7145" filterUnits="userSpaceOnUse" color-interpolation-filters="sRGB">
<feFlood flood-opacity="0" result="BackgroundImageFix"/>
<feColorMatrix in="SourceAlpha" type="matrix" values="0 0 0 0 0 0 0 0 0 0 0 0 0 0 0 0 0 0 127 0" result="hardAlpha"/>
<feOffset dy="4"/>
<feGaussianBlur stdDeviation="2"/>
<feComposite in2="hardAlpha" operator="out"/>
<feColorMatrix type="matrix" values="0 0 0 0 0 0 0 0 0 0 0 0 0 0 0 0 0 0 0.25 0"/>
<feBlend mode="normal" in2="BackgroundImageFix" result="effect1_dropShadow_67_2206"/>
<feBlend mode="normal" in="SourceGraphic" in2="effect1_dropShadow_67_2206" result="shape"/>
</filter>
<filter id="filter55_d_67_2206" x="51.9624" y="55.8015" width="101.843" height="10.7145" filterUnits="userSpaceOnUse" color-interpolation-filters="sRGB">
<feFlood flood-opacity="0" result="BackgroundImageFix"/>
<feColorMatrix in="SourceAlpha" type="matrix" values="0 0 0 0 0 0 0 0 0 0 0 0 0 0 0 0 0 0 127 0" result="hardAlpha"/>
<feOffset dy="4"/>
<feGaussianBlur stdDeviation="2"/>
<feComposite in2="hardAlpha" operator="out"/>
<feColorMatrix type="matrix" values="0 0 0 0 0 0 0 0 0 0 0 0 0 0 0 0 0 0 0.25 0"/>
<feBlend mode="normal" in2="BackgroundImageFix" result="effect1_dropShadow_67_2206"/>
<feBlend mode="normal" in="SourceGraphic" in2="effect1_dropShadow_67_2206" result="shape"/>
</filter>
<filter id="filter56_d_67_2206" x="90.2563" y="11.0518" width="25.2537" height="30.7239" filterUnits="userSpaceOnUse" color-interpolation-filters="sRGB">
<feFlood flood-opacity="0" result="BackgroundImageFix"/>
<feColorMatrix in="SourceAlpha" type="matrix" values="0 0 0 0 0 0 0 0 0 0 0 0 0 0 0 0 0 0 127 0" result="hardAlpha"/>
<feOffset dy="4"/>
<feGaussianBlur stdDeviation="2"/>
<feComposite in2="hardAlpha" operator="out"/>
<feColorMatrix type="matrix" values="0 0 0 0 0 0 0 0 0 0 0 0 0 0 0 0 0 0 0.25 0"/>
<feBlend mode="normal" in2="BackgroundImageFix" result="effect1_dropShadow_67_2206"/>
<feBlend mode="normal" in="SourceGraphic" in2="effect1_dropShadow_67_2206" result="shape"/>
</filter>
<filter id="filter57_d_67_2206" x="90.2563" y="11.0518" width="25.2537" height="30.7239" filterUnits="userSpaceOnUse" color-interpolation-filters="sRGB">
<feFlood flood-opacity="0" result="BackgroundImageFix"/>
<feColorMatrix in="SourceAlpha" type="matrix" values="0 0 0 0 0 0 0 0 0 0 0 0 0 0 0 0 0 0 127 0" result="hardAlpha"/>
<feOffset dy="4"/>
<feGaussianBlur stdDeviation="2"/>
<feComposite in2="hardAlpha" operator="out"/>
<feColorMatrix type="matrix" values="0 0 0 0 0 0 0 0 0 0 0 0 0 0 0 0 0 0 0.25 0"/>
<feBlend mode="normal" in2="BackgroundImageFix" result="effect1_dropShadow_67_2206"/>
<feBlend mode="normal" in="SourceGraphic" in2="effect1_dropShadow_67_2206" result="shape"/>
</filter>
<filter id="filter58_d_67_2206" x="92.7183" y="17.1786" width="20.3313" height="20.3314" filterUnits="userSpaceOnUse" color-interpolation-filters="sRGB">
<feFlood flood-opacity="0" result="BackgroundImageFix"/>
<feColorMatrix in="SourceAlpha" type="matrix" values="0 0 0 0 0 0 0 0 0 0 0 0 0 0 0 0 0 0 127 0" result="hardAlpha"/>
<feOffset dy="4"/>
<feGaussianBlur stdDeviation="2"/>
<feComposite in2="hardAlpha" operator="out"/>
<feColorMatrix type="matrix" values="0 0 0 0 0 0 0 0 0 0 0 0 0 0 0 0 0 0 0.25 0"/>
<feBlend mode="normal" in2="BackgroundImageFix" result="effect1_dropShadow_67_2206"/>
<feBlend mode="normal" in="SourceGraphic" in2="effect1_dropShadow_67_2206" result="shape"/>
</filter>
<filter id="filter59_d_67_2206" x="92.7183" y="17.1786" width="20.3313" height="20.3314" filterUnits="userSpaceOnUse" color-interpolation-filters="sRGB">
<feFlood flood-opacity="0" result="BackgroundImageFix"/>
<feColorMatrix in="SourceAlpha" type="matrix" values="0 0 0 0 0 0 0 0 0 0 0 0 0 0 0 0 0 0 127 0" result="hardAlpha"/>
<feOffset dy="4"/>
<feGaussianBlur stdDeviation="2"/>
<feComposite in2="hardAlpha" operator="out"/>
<feColorMatrix type="matrix" values="0 0 0 0 0 0 0 0 0 0 0 0 0 0 0 0 0 0 0.25 0"/>
<feBlend mode="normal" in2="BackgroundImageFix" result="effect1_dropShadow_67_2206"/>
<feBlend mode="normal" in="SourceGraphic" in2="effect1_dropShadow_67_2206" result="shape"/>
</filter>
<filter id="filter60_d_67_2206" x="104.623" y="149.45" width="101.145" height="88.8909" filterUnits="userSpaceOnUse" color-interpolation-filters="sRGB">
<feFlood flood-opacity="0" result="BackgroundImageFix"/>
<feColorMatrix in="SourceAlpha" type="matrix" values="0 0 0 0 0 0 0 0 0 0 0 0 0 0 0 0 0 0 127 0" result="hardAlpha"/>
<feOffset dy="4"/>
<feGaussianBlur stdDeviation="2"/>
<feComposite in2="hardAlpha" operator="out"/>
<feColorMatrix type="matrix" values="0 0 0 0 0 0 0 0 0 0 0 0 0 0 0 0 0 0 0.25 0"/>
<feBlend mode="normal" in2="BackgroundImageFix" result="effect1_dropShadow_67_2206"/>
<feBlend mode="normal" in="SourceGraphic" in2="effect1_dropShadow_67_2206" result="shape"/>
</filter>
<filter id="filter61_d_67_2206" x="104.623" y="149.45" width="101.145" height="88.8909" filterUnits="userSpaceOnUse" color-interpolation-filters="sRGB">
<feFlood flood-opacity="0" result="BackgroundImageFix"/>
<feColorMatrix in="SourceAlpha" type="matrix" values="0 0 0 0 0 0 0 0 0 0 0 0 0 0 0 0 0 0 127 0" result="hardAlpha"/>
<feOffset dy="4"/>
<feGaussianBlur stdDeviation="2"/>
<feComposite in2="hardAlpha" operator="out"/>
<feColorMatrix type="matrix" values="0 0 0 0 0 0 0 0 0 0 0 0 0 0 0 0 0 0 0.25 0"/>
<feBlend mode="normal" in2="BackgroundImageFix" result="effect1_dropShadow_67_2206"/>
<feBlend mode="normal" in="SourceGraphic" in2="effect1_dropShadow_67_2206" result="shape"/>
</filter>
</defs>
</svg>
